<svg width="200" height="150" viewBox="0 0 200 150" fill="none" xmlns="http://www.w3.org/2000/svg">
<path d="M20.4537 28.6387H2.76562V144.811H20.4537V28.6387Z" fill="black" fill-opacity="0.08"/>
<path d="M71.7246 18.1523V15.8068C71.7246 14.9238 72.4421 14.2339 73.2976 14.2339H100.313C101.196 14.2339 101.885 14.9514 101.885 15.8068V18.1523H71.7246Z" fill="#FFD573"/>
<path d="M62.867 74.9138H61.2665C60.494 74.9138 59.8867 74.2793 59.8867 73.534V59.93C59.8867 59.1573 60.5215 58.5503 61.2665 58.5503H62.8947V74.9138H62.867Z" fill="#FFD573"/>
<path d="M62.867 91.6089H61.2665C60.494 91.6089 59.8867 90.9741 59.8867 90.2291V76.6249C59.8867 75.8524 60.5215 75.2451 61.2665 75.2451H62.8947V91.6089H62.867Z" fill="#FFD573"/>
<path d="M141.925 76.5146C141.759 76.5146 141.649 76.4041 141.649 76.2386C141.649 75.6591 141.207 75.3556 140.656 74.9968C140.076 74.6106 139.441 74.1966 139.441 73.3136C139.441 72.4306 140.104 71.9891 140.656 71.6303C141.18 71.2716 141.649 70.9681 141.649 70.3886C141.649 69.8091 141.207 69.5056 140.656 69.1468C140.076 68.7603 139.441 68.3466 139.441 67.4636C139.441 66.5806 140.104 66.1666 140.656 65.7803C141.18 65.4216 141.649 65.1181 141.649 64.5386C141.649 63.9591 141.207 63.6553 140.656 63.2968C140.076 62.9103 139.441 62.4966 139.441 61.6133C139.441 60.7303 140.104 60.3166 140.656 59.9301C141.18 59.5716 141.649 59.2956 141.649 58.6883C141.649 58.0813 141.207 57.8053 140.656 57.4466C140.076 57.0603 139.441 56.6463 139.441 55.7633C139.441 54.8803 140.104 54.4666 140.656 54.0801C141.18 53.7213 141.649 53.4178 141.649 52.8383C141.649 52.2588 141.207 51.9553 140.656 51.5966C140.076 51.2103 139.441 50.7963 139.441 49.9133C139.441 49.0303 140.104 48.6163 140.656 48.2301C141.18 47.8713 141.649 47.5678 141.649 46.9883C141.649 46.4088 141.207 46.1053 140.656 45.7466C140.076 45.3603 139.441 44.9463 139.441 44.0633C139.441 43.1803 140.104 42.7663 140.656 42.3801C141.18 42.0213 141.649 41.7453 141.649 41.1383C141.649 40.9728 141.759 40.8623 141.925 40.8623C142.091 40.8623 142.201 40.9728 142.201 41.1383C142.201 42.0213 141.539 42.4353 140.987 42.8216C140.462 43.1803 139.993 43.4838 139.993 44.0633C139.993 44.6428 140.435 44.9463 140.987 45.3051C141.566 45.6913 142.201 46.1053 142.201 46.9883C142.201 47.8713 141.539 48.2853 140.987 48.6716C140.462 49.0303 139.993 49.3338 139.993 49.9133C139.993 50.4928 140.435 50.7963 140.987 51.1551C141.566 51.5416 142.201 51.9553 142.201 52.8383C142.201 53.7213 141.539 54.1353 140.987 54.5216C140.462 54.8803 139.993 55.1838 139.993 55.7633C139.993 56.3428 140.435 56.6463 140.987 57.0051C141.566 57.3916 142.201 57.8053 142.201 58.6883C142.201 59.5716 141.539 59.9853 140.987 60.3716C140.462 60.7303 139.993 61.0063 139.993 61.6133C139.993 62.1928 140.435 62.4966 140.987 62.8553C141.566 63.2416 142.201 63.6553 142.201 64.5386C142.201 65.4216 141.539 65.8631 140.987 66.2218C140.462 66.5806 139.993 66.8841 139.993 67.4636C139.993 68.0431 140.435 68.3466 140.987 68.7053C141.566 69.0916 142.201 69.5056 142.201 70.3886C142.201 71.2716 141.539 71.7131 140.987 72.0718C140.462 72.4306 139.993 72.7341 139.993 73.3136C139.993 73.8931 140.435 74.1966 140.987 74.5553C141.566 74.9416 142.201 75.3556 142.201 76.2386C142.201 76.4041 142.091 76.5146 141.925 76.5146Z" fill="#FFD573"/>
<path d="M14.0519 63.6007C13.8863 63.6007 13.7759 63.4902 13.7759 63.3247C13.7759 62.7452 13.3344 62.4417 12.7825 62.083C12.203 61.6967 11.5684 61.2827 11.5684 60.3997C11.5684 59.5167 12.2306 59.0752 12.7825 58.7165C13.3068 58.3577 13.7759 58.0542 13.7759 57.4747C13.7759 57.309 13.8863 57.1987 14.0519 57.1987C14.2174 57.1987 14.3278 57.309 14.3278 57.4747C14.3278 58.3577 13.6655 58.7992 13.1136 59.158C12.5894 59.5167 12.1202 59.8202 12.1202 60.3997C12.1202 60.9792 12.5618 61.2827 13.1136 61.6415C13.6931 62.0277 14.3278 62.4417 14.3278 63.3247C14.3278 63.4902 14.1898 63.6007 14.0519 63.6007Z" fill="#F5A623"/>
<path d="M197.224 64.0422C197.058 64.0422 196.948 63.9317 196.948 63.7662C196.948 63.1867 196.506 62.8832 195.954 62.5245C195.375 62.1382 194.74 61.7242 194.74 60.8412C194.74 59.9582 195.402 59.5167 195.954 59.158C196.479 58.7992 196.948 58.4957 196.948 57.9162C196.948 57.3367 196.506 57.0332 195.954 56.6745C195.375 56.2882 194.74 55.8742 194.74 54.9912C194.74 54.1082 195.402 53.6942 195.954 53.308C196.479 52.9492 196.948 52.6732 196.948 52.0662C196.948 51.4592 196.506 51.1832 195.954 50.8245C195.375 50.4382 194.74 50.0242 194.74 49.1412C194.74 48.9755 194.851 48.8652 195.016 48.8652C195.182 48.8652 195.292 48.9755 195.292 49.1412C195.292 49.7207 195.734 50.0242 196.285 50.383C196.865 50.7692 197.5 51.1832 197.5 52.0662C197.5 52.9492 196.837 53.3632 196.285 53.7495C195.761 54.1082 195.292 54.3842 195.292 54.9912C195.292 55.5707 195.734 55.8742 196.285 56.233C196.865 56.6192 197.5 57.0332 197.5 57.9162C197.5 58.7992 196.837 59.2132 196.285 59.5995C195.761 59.9582 195.292 60.2617 195.292 60.8412C195.292 61.4207 195.734 61.7242 196.285 62.083C196.865 62.4692 197.5 62.8832 197.5 63.7662C197.5 63.9317 197.362 64.0422 197.224 64.0422Z" fill="#F5A623"/>
<path d="M21.778 11.5016C20.895 11.5016 20.4811 10.8394 20.0947 10.2875C19.736 9.76319 19.4325 9.29409 18.853 9.29409C18.2735 9.29409 17.97 9.73559 17.6112 10.2875C17.2249 10.867 16.811 11.5016 15.928 11.5016C15.0449 11.5016 14.631 10.8394 14.2447 10.2875C13.886 9.76319 13.5824 9.29409 13.0029 9.29409C12.4235 9.29409 12.1199 9.73559 11.7612 10.2875C11.3749 10.867 10.9609 11.5016 10.0779 11.5016C9.19488 11.5016 8.78098 10.8394 8.39465 10.2875C8.03593 9.76319 7.73238 9.29409 7.1529 9.29409C6.98733 9.29409 6.87695 9.18371 6.87695 9.01814C6.87695 8.85256 6.98733 8.74219 7.1529 8.74219C8.03593 8.74219 8.44983 9.40446 8.83615 9.95636C9.19488 10.4806 9.49843 10.9498 10.0779 10.9498C10.6574 10.9498 10.9609 10.5082 11.3197 9.95636C11.706 9.37686 12.1199 8.74219 13.0029 8.74219C13.886 8.74219 14.2999 9.40446 14.6862 9.95636C15.0449 10.4806 15.3485 10.9498 15.928 10.9498C16.5074 10.9498 16.811 10.5082 17.1697 9.95636C17.556 9.37686 17.97 8.74219 18.853 8.74219C19.736 8.74219 20.1499 9.40446 20.5362 9.95636C20.895 10.4806 21.1985 10.9498 21.778 10.9498C21.9436 10.9498 22.0539 11.0601 22.0539 11.2257C22.0539 11.3913 21.9436 11.5016 21.778 11.5016Z" fill="#F5A623"/>
<path d="M45.6471 23.6432C44.7641 23.6432 44.3501 22.981 43.9638 22.4291C43.6051 21.9048 43.3016 21.4357 42.7221 21.4357C42.1426 21.4357 41.8391 21.8772 41.4803 22.4291C41.0938 23.0086 40.6801 23.6432 39.7971 23.6432C38.9141 23.6432 38.5001 22.981 38.1138 22.4291C37.7551 21.9048 37.4516 21.4357 36.8721 21.4357C36.2926 21.4357 35.9888 21.8772 35.6303 22.4291C35.2438 23.0086 34.8301 23.6432 33.9468 23.6432C33.0638 23.6432 32.6501 22.981 32.2636 22.4291C31.9051 21.9048 31.6013 21.4357 31.0218 21.4357C30.8563 21.4357 30.7461 21.3253 30.7461 21.1597C30.7461 20.9942 30.8563 20.8838 31.0218 20.8838C31.9051 20.8838 32.3188 21.5461 32.7051 22.098C33.0638 22.6223 33.3676 23.0914 33.9468 23.0914C34.5263 23.0914 34.8301 22.6498 35.1888 22.098C35.5751 21.5185 35.9888 20.8838 36.8721 20.8838C37.7551 20.8838 38.1688 21.5461 38.5553 22.098C38.9141 22.6223 39.2176 23.0914 39.7971 23.0914C40.3766 23.0914 40.6801 22.6498 41.0388 22.098C41.4251 21.5185 41.8391 20.8838 42.7221 20.8838C43.6051 20.8838 44.0188 21.5461 44.4053 22.098C44.7641 22.6223 45.0676 23.0914 45.6471 23.0914C45.8126 23.0914 45.9231 23.2017 45.9231 23.3673C45.9231 23.5329 45.7851 23.6432 45.6471 23.6432Z" fill="#F5A623"/>
<path d="M71.9719 144.811C66.5634 144.811 62.1484 140.396 62.1484 134.987V25.5473C62.1484 20.1388 66.5634 15.7236 71.9719 15.7236H126.554C131.962 15.7236 136.378 20.1388 136.378 25.5473V134.96C136.378 140.368 131.962 144.783 126.554 144.783H71.9719V144.811Z" fill="#B0C1E1"/>
<path d="M71.9725 142.052C68.0817 142.052 64.9082 138.878 64.9082 134.988V25.5475C64.9082 21.6568 68.0817 18.4834 71.9725 18.4834H126.554C130.445 18.4834 133.619 21.6568 133.619 25.5475V134.96C133.619 138.851 130.445 142.024 126.554 142.024H71.9725V142.052Z" fill="#F5A623"/>
<path d="M126.555 102.95H71.9727C69.5997 102.95 67.668 101.019 67.668 98.6452V25.5475C67.668 23.1743 69.5997 21.2427 71.9727 21.2427H126.555C128.928 21.2427 130.859 23.1743 130.859 25.5475V98.6178C130.859 101.019 128.928 102.95 126.555 102.95Z" fill="#EAEAEA"/>
<path d="M93.6896 100.356C94.5276 100.356 95.2071 99.6768 95.2071 98.8386C95.2071 98.0003 94.5276 97.3208 93.6896 97.3208C92.8514 97.3208 92.1719 98.0003 92.1719 98.8386C92.1719 99.6768 92.8514 100.356 93.6896 100.356Z" fill="#F5A623"/>
<path d="M99.2638 100.356C100.102 100.356 100.782 99.6768 100.782 98.8386C100.782 98.0003 100.102 97.3208 99.2638 97.3208C98.4256 97.3208 97.7461 98.0003 97.7461 98.8386C97.7461 99.6768 98.4256 100.356 99.2638 100.356Z" fill="#FFD573"/>
<path d="M104.865 100.356C105.704 100.356 106.383 99.6768 106.383 98.8386C106.383 98.0003 105.704 97.3208 104.865 97.3208C104.027 97.3208 103.348 98.0003 103.348 98.8386C103.348 99.6768 104.027 100.356 104.865 100.356Z" fill="#FFD573"/>
<path d="M118.166 81.2886H80.3618C79.258 81.2886 78.375 80.4056 78.375 79.3019V42.9599C78.375 41.8561 79.258 40.9731 80.3618 40.9731H118.166C119.27 40.9731 120.153 41.8561 120.153 42.9599V79.3019C120.181 80.4056 119.27 81.2886 118.166 81.2886Z" fill="#FFD573"/>
<path d="M112.951 116.279H85.6044C83.7556 116.279 82.2656 114.788 82.2656 112.94C82.2656 111.091 83.7556 109.601 85.6044 109.601H112.951C114.799 109.601 116.29 111.091 116.29 112.94C116.262 114.788 114.772 116.279 112.951 116.279Z" fill="#FFD573"/>
<path d="M109.17 120.583H89.3574C89.1366 120.583 88.9434 120.39 88.9434 120.169C88.9434 119.948 89.1366 119.755 89.3574 119.755H109.17C109.391 119.755 109.584 119.948 109.584 120.169C109.584 120.39 109.391 120.583 109.17 120.583Z" fill="#FFD573"/>
<path d="M105.832 123.48H92.6696C92.4489 123.48 92.2559 123.287 92.2559 123.066C92.2559 122.846 92.4489 122.652 92.6696 122.652H105.832C106.053 122.652 106.246 122.846 106.246 123.066C106.246 123.287 106.081 123.48 105.832 123.48Z" fill="#FFD573"/>
<path d="M75.1459 136.368C73.5179 136.368 72.1934 135.043 72.1934 133.415C72.1934 131.787 73.5179 130.462 75.1459 130.462C76.7739 130.462 78.0986 131.787 78.0986 133.415C78.0709 135.043 76.7464 136.368 75.1459 136.368ZM75.1459 131.318C73.9869 131.318 73.0211 132.256 73.0211 133.442C73.0211 134.601 73.9594 135.567 75.1459 135.567C76.3049 135.567 77.2706 134.629 77.2706 133.442C77.2431 132.256 76.3049 131.318 75.1459 131.318Z" fill="#FFD573"/>
<path d="M91.2337 136.368C89.6057 136.368 88.2812 135.043 88.2812 133.415C88.2812 131.787 89.6057 130.462 91.2337 130.462C92.862 130.462 94.1865 131.787 94.1865 133.415C94.1588 135.043 92.8342 136.368 91.2337 136.368ZM91.2337 131.318C90.0747 131.318 89.109 132.256 89.109 133.442C89.109 134.601 90.0472 135.567 91.2337 135.567C92.3927 135.567 93.3585 134.629 93.3585 133.442C93.331 132.256 92.3927 131.318 91.2337 131.318Z" fill="#FFD573"/>
<path d="M107.322 136.368C105.694 136.368 104.369 135.043 104.369 133.415C104.369 131.787 105.694 130.462 107.322 130.462C108.95 130.462 110.274 131.787 110.274 133.415C110.247 135.043 108.922 136.368 107.322 136.368ZM107.322 131.318C106.163 131.318 105.197 132.256 105.197 133.442C105.197 134.601 106.135 135.567 107.322 135.567C108.481 135.567 109.447 134.629 109.447 133.442C109.419 132.256 108.481 131.318 107.322 131.318Z" fill="#FFD573"/>
<path d="M123.41 136.368C121.782 136.368 120.457 135.043 120.457 133.415C120.457 131.787 121.782 130.462 123.41 130.462C125.038 130.462 126.362 131.787 126.362 133.415C126.335 135.043 125.038 136.368 123.41 136.368ZM123.41 131.318C122.251 131.318 121.285 132.256 121.285 133.442C121.285 134.601 122.223 135.567 123.41 135.567C124.596 135.567 125.535 134.629 125.535 133.442C125.507 132.256 124.569 131.318 123.41 131.318Z" fill="#FFD573"/>
<path d="M120.069 86.6972H78.4569C77.8499 86.6972 77.3809 86.2282 77.3809 85.6209C77.3809 85.0139 77.8499 84.5449 78.4569 84.5449H120.069C120.677 84.5449 121.146 85.0139 121.146 85.6209C121.146 86.2282 120.677 86.6972 120.069 86.6972Z" fill="#F5A623"/>
<path d="M120.069 90.3949H78.4569C77.8499 90.3949 77.3809 89.9259 77.3809 89.3187C77.3809 88.7117 77.8499 88.2427 78.4569 88.2427H120.069C120.677 88.2427 121.146 88.7117 121.146 89.3187C121.146 89.8982 120.677 90.3949 120.069 90.3949Z" fill="#F5A623"/>
<path d="M82.0175 24.8853H74.5117V32.391H82.0175V24.8853Z" fill="#B0C1E1"/>
<path d="M120.291 32.391H89.6883C87.6188 32.391 85.9355 30.7078 85.9355 28.638C85.9355 26.5685 87.6188 24.8853 89.6883 24.8853H120.291C122.36 24.8853 124.044 26.5685 124.044 28.638C124.044 30.7078 122.36 32.391 120.291 32.391Z" fill="#B0C1E1"/>
<path d="M123.051 75.3559H118.36C118.194 75.3559 118.084 75.2457 118.084 75.0802C118.084 74.9145 118.194 74.8042 118.36 74.8042H123.051C123.217 74.8042 123.327 74.9145 123.327 75.0802C123.327 75.2457 123.217 75.3559 123.051 75.3559Z" fill="#F5A623"/>
<path d="M124.071 77.7842H87.5082C87.3427 77.7842 87.2324 77.6739 87.2324 77.5082C87.2324 77.3427 87.3427 77.2324 87.5082 77.2324H124.071C124.237 77.2324 124.347 77.3427 124.347 77.5082C124.347 77.6739 124.237 77.7842 124.071 77.7842Z" fill="#F5A623"/>
<path d="M99.2356 71.9891L86.6523 71.5753V53.8596L87.9493 52.5073L100.532 70.6646L99.2356 71.9891Z" fill="#F5A623"/>
<path d="M100.532 70.6646L87.9492 70.2506V52.5073L100.532 70.6646Z" fill="#B0C1E1"/>
<path d="M103.595 70.9407C103.512 70.9407 103.43 70.8855 103.374 70.8302L98.0212 63.1037C97.9384 62.9657 97.9659 62.8002 98.1039 62.7175C98.2419 62.6347 98.4074 62.6622 98.4902 62.8002L103.844 70.5267C103.926 70.6647 103.899 70.8302 103.761 70.913C103.706 70.913 103.65 70.9407 103.595 70.9407Z" fill="#F5A623"/>
<path d="M97.1937 61.724C97.1109 61.724 97.0282 61.669 96.9729 61.6138L94.3239 57.778C94.2412 57.6403 94.2687 57.4745 94.4067 57.3918C94.5447 57.309 94.7102 57.3365 94.7929 57.4745L97.4144 61.2825C97.4972 61.4205 97.4697 61.5863 97.3317 61.669C97.3042 61.6965 97.2489 61.724 97.1937 61.724Z" fill="#F5A623"/>
<path d="M106.603 70.9403C106.52 70.9403 106.438 70.8853 106.382 70.83L89.826 46.9608C89.743 46.8228 89.7707 46.6573 89.9087 46.5745C90.0467 46.4915 90.2122 46.5193 90.295 46.6573L106.852 70.5265C106.934 70.6645 106.907 70.83 106.769 70.9128C106.714 70.9128 106.658 70.9403 106.603 70.9403Z" fill="#F5A623"/>
<path d="M109.612 70.9408C109.529 70.9408 109.447 70.8856 109.391 70.8303L96.8083 52.6733C96.7255 52.5353 96.753 52.3696 96.891 52.2868C97.029 52.2041 97.1945 52.2316 97.2773 52.3696L109.861 70.5268C109.943 70.6648 109.916 70.8303 109.778 70.9131C109.723 70.9131 109.667 70.9408 109.612 70.9408Z" fill="#F5A623"/>
<path d="M103.32 52.0938C105.469 52.0938 107.211 50.3518 107.211 48.2028C107.211 46.054 105.469 44.312 103.32 44.312C101.172 44.312 99.4297 46.054 99.4297 48.2028C99.4297 50.3518 101.172 52.0938 103.32 52.0938Z" fill="#F5A623"/>
<path d="M95.87 51.5416C96.4033 51.5416 96.8358 51.1091 96.8358 50.5759C96.8358 50.0424 96.4033 49.6099 95.87 49.6099C95.3365 49.6099 94.9043 50.0424 94.9043 50.5759C94.9043 51.1091 95.3365 51.5416 95.87 51.5416Z" fill="#F5A623"/>
<path d="M99.3742 70.0024C99.3467 70.0024 99.3465 70.0299 99.319 70.0299C99.2915 70.0299 99.2637 70.0576 99.2637 70.0576C99.2362 70.0576 99.2087 70.0576 99.181 70.0576C99.1535 70.0576 99.1257 70.0299 99.1257 70.0299C99.0982 70.0299 99.0982 70.0024 99.0707 69.9749C99.0707 69.9471 99.0707 69.9471 99.043 69.9196C99.043 69.8921 99.043 69.8644 99.043 69.8369C99.043 69.8091 99.043 69.8091 99.0707 69.7816C99.0982 69.7541 99.0982 69.7264 99.1257 69.7264C99.1535 69.7264 99.1535 69.6989 99.181 69.6989C99.2087 69.6989 99.2362 69.6714 99.2362 69.6714C99.2637 69.6714 99.2915 69.6714 99.319 69.6714C99.3465 69.6714 99.3742 69.6989 99.3742 69.6989C99.4017 69.6989 99.4017 69.7264 99.4295 69.7541C99.4295 69.7816 99.4295 69.7816 99.457 69.8091C99.457 69.8369 99.457 69.8644 99.457 69.8921C99.457 69.9196 99.457 69.9196 99.4295 69.9471C99.4295 69.9471 99.4017 69.9749 99.3742 70.0024Z" fill="white"/>
<path d="M94.1597 68.8431C93.939 68.8431 93.939 68.4844 94.1597 68.4844C94.3805 68.4844 94.3805 68.8431 94.1597 68.8431Z" fill="white"/>
<path d="M98.187 69.8094C97.9663 69.8094 97.9663 69.4507 98.187 69.4507C98.4078 69.4507 98.4078 69.8094 98.187 69.8094Z" fill="white"/>
<path d="M92.8335 68.6776C92.6128 68.6776 92.6128 68.3188 92.8335 68.3188C93.0818 68.3188 93.0818 68.6776 92.8335 68.6776Z" fill="white"/>
<path d="M92.5308 69.7538C92.31 69.7538 92.31 69.395 92.5308 69.395C92.7515 69.395 92.7515 69.7538 92.5308 69.7538Z" fill="white"/>
<path d="M95.0132 69.6712C94.7925 69.6712 94.7925 69.3125 95.0132 69.3125C95.234 69.3125 95.234 69.6712 95.0132 69.6712Z" fill="white"/>
<path d="M89.0816 62.4139C88.8608 62.4139 88.8608 62.0552 89.0816 62.0552C89.3023 62.0552 89.3023 62.4139 89.0816 62.4139Z" fill="white"/>
<path d="M88.5855 60.3993C88.3647 60.3993 88.3647 60.0405 88.5855 60.0405C88.8062 60.0405 88.8062 60.3993 88.5855 60.3993Z" fill="white"/>
<path d="M89.8257 64.4833C89.605 64.4833 89.605 64.1245 89.8257 64.1245C90.0465 64.1245 90.0465 64.4833 89.8257 64.4833Z" fill="white"/>
<path d="M90.5992 68.4022C90.3784 68.4022 90.3784 68.0435 90.5992 68.0435C90.8199 68.0435 90.8199 68.4022 90.5992 68.4022Z" fill="white"/>
<path d="M90.3511 66.9949C90.1304 66.9949 90.1304 66.6362 90.3511 66.6362C90.5719 66.6084 90.5719 66.9949 90.3511 66.9949Z" fill="white"/>
<path d="M95.3999 69.1195C95.1792 69.1195 95.1792 68.7607 95.3999 68.7607C95.6482 68.733 95.6482 69.1195 95.3999 69.1195Z" fill="white"/>
<path d="M96.6695 69.8645C96.4487 69.8645 96.4487 69.5058 96.6695 69.5058C96.9177 69.4783 96.9177 69.8645 96.6695 69.8645Z" fill="white"/>
<path d="M93.7456 69.5609C93.5249 69.5609 93.5249 69.2021 93.7456 69.2021C93.9939 69.2021 93.9939 69.5609 93.7456 69.5609Z" fill="white"/>
<path d="M90.4605 65.808C90.2397 65.808 90.2397 65.4492 90.4605 65.4492C90.709 65.4492 90.709 65.808 90.4605 65.808Z" fill="white"/>
<path d="M88.8335 57.9711C88.6128 57.9711 88.6128 57.6123 88.8335 57.6123C89.0818 57.6123 89.0818 57.9711 88.8335 57.9711Z" fill="white"/>
<path d="M90.9585 69.8094C90.7378 69.8094 90.7378 69.4507 90.9585 69.4507C91.1793 69.4507 91.1793 69.8094 90.9585 69.8094Z" fill="white"/>
<path d="M88.8882 66.6908C88.6675 66.6908 88.6675 66.332 88.8882 66.332C89.1365 66.332 89.1365 66.6908 88.8882 66.6908Z" fill="white"/>
<path d="M91.8687 68.954C91.6479 68.954 91.6479 68.5952 91.8687 68.5952C92.0894 68.5952 92.0894 68.954 91.8687 68.954Z" fill="white"/>
<path d="M90.3511 69.1468C90.1304 69.1468 90.1304 68.7881 90.3511 68.7881C90.5719 68.7881 90.5719 69.1468 90.3511 69.1468Z" fill="white"/>
<path d="M88.8335 63.6834C88.6128 63.6834 88.6128 63.3247 88.8335 63.3247C89.0818 63.2969 89.0818 63.6834 88.8335 63.6834Z" fill="white"/>
<path d="M88.7495 64.7594C88.5288 64.7594 88.5288 64.4009 88.7495 64.4009C88.9978 64.4009 88.9978 64.7594 88.7495 64.7594Z" fill="white"/>
<path d="M89.3023 65.6976C89.0815 65.6976 89.0815 65.3389 89.3023 65.3389C89.523 65.3389 89.523 65.6976 89.3023 65.6976Z" fill="white"/>
<path d="M89.4683 67.7674C89.2475 67.7674 89.2475 67.4087 89.4683 67.4087C89.689 67.4087 89.689 67.7674 89.4683 67.7674Z" fill="white"/>
<path d="M88.7495 68.6776C88.5288 68.6776 88.5288 68.3188 88.7495 68.3188C88.9978 68.3188 88.9978 68.6776 88.7495 68.6776Z" fill="white"/>
<path d="M89.1089 69.5887C88.8882 69.5887 88.8882 69.23 89.1089 69.23C89.3572 69.23 89.3572 69.5887 89.1089 69.5887Z" fill="white"/>
<path d="M91.5093 67.4085C91.2886 67.4085 91.2886 67.0497 91.5093 67.0497C91.7301 67.0222 91.7301 67.4085 91.5093 67.4085Z" fill="white"/>
<path d="M116.068 99.3353C116.593 99.3353 116.593 98.5073 116.068 98.5073C115.516 98.5073 115.516 99.3353 116.068 99.3353Z" fill="#F5A623"/>
<path d="M106.715 102.426C107.239 102.426 107.239 101.598 106.715 101.598C106.163 101.598 106.163 102.426 106.715 102.426Z" fill="#F5A623"/>
<path d="M119.049 98.921C119.573 98.921 119.573 98.0933 119.049 98.0933C118.497 98.0933 118.497 98.921 119.049 98.921Z" fill="#F5A623"/>
<path d="M119.766 101.405C120.29 101.405 120.29 100.577 119.766 100.577C119.242 100.577 119.242 101.405 119.766 101.405Z" fill="#F5A623"/>
<path d="M113.943 102.095C114.468 102.095 114.468 101.267 113.943 101.267C113.391 101.267 113.391 102.095 113.943 102.095Z" fill="#F5A623"/>
<path d="M127.659 84.6273C128.183 84.6273 128.183 83.7993 127.659 83.7993C127.135 83.7993 127.135 84.6273 127.659 84.6273Z" fill="#F5A623"/>
<path d="M130.389 84.2135C130.914 84.2135 130.914 83.3857 130.389 83.3857C129.865 83.3857 129.865 84.2135 130.389 84.2135Z" fill="#F5A623"/>
<path d="M128.79 79.9916C129.314 79.9916 129.314 79.1636 128.79 79.1636C128.265 79.1636 128.265 79.9916 128.79 79.9916Z" fill="#F5A623"/>
<path d="M125.975 89.3461C126.499 89.3461 126.499 88.5181 125.975 88.5181C125.423 88.5181 125.423 89.3461 125.975 89.3461Z" fill="#F5A623"/>
<path d="M124.346 98.5074C124.871 98.5074 124.871 97.6797 124.346 97.6797C123.822 97.6797 123.822 98.5074 124.346 98.5074Z" fill="#F5A623"/>
<path d="M126.775 94.6442C127.299 94.6442 127.299 93.8164 126.775 93.8164C126.223 93.8164 126.223 94.6442 126.775 94.6442Z" fill="#F5A623"/>
<path d="M113.171 99.9152C113.695 99.9152 113.695 99.0874 113.171 99.0874C112.646 99.0874 112.646 99.9152 113.171 99.9152Z" fill="#F5A623"/>
<path d="M109.721 100.136C110.246 100.136 110.246 99.3076 109.721 99.3076C109.197 99.3076 109.197 100.136 109.721 100.136Z" fill="#F5A623"/>
<path d="M110.136 102.508C110.66 102.508 110.66 101.681 110.136 101.681C109.612 101.681 109.584 102.508 110.136 102.508Z" fill="#F5A623"/>
<path d="M116.814 101.874C117.338 101.874 117.338 101.046 116.814 101.046C116.262 101.046 116.262 101.874 116.814 101.874Z" fill="#F5A623"/>
<path d="M124.484 92.3539C125.008 92.3539 125.008 91.5259 124.484 91.5259C123.932 91.5259 123.932 92.3539 124.484 92.3539Z" fill="#F5A623"/>
<path d="M130.389 90.3671C130.914 90.3671 130.914 89.5391 130.389 89.5391C129.865 89.5391 129.865 90.3671 130.389 90.3671Z" fill="#F5A623"/>
<path d="M122.968 96.8241C123.492 96.8241 123.492 95.9961 122.968 95.9961C122.443 95.9961 122.443 96.8241 122.968 96.8241Z" fill="#F5A623"/>
<path d="M123.382 101.515C123.906 101.515 123.906 100.688 123.382 100.688C122.858 100.688 122.83 101.515 123.382 101.515Z" fill="#F5A623"/>
<path d="M121.588 103.309C122.112 103.309 122.112 102.481 121.588 102.481C121.036 102.481 121.036 103.309 121.588 103.309Z" fill="#F5A623"/>
<path d="M125.174 103.419C125.699 103.419 125.699 102.591 125.174 102.591C124.65 102.591 124.65 103.419 125.174 103.419Z" fill="#F5A623"/>
<path d="M129.59 98.5074C130.115 98.5074 130.115 97.6797 129.59 97.6797C129.066 97.6797 129.066 98.5074 129.59 98.5074Z" fill="#F5A623"/>
<path d="M130.004 100.549C130.528 100.549 130.528 99.7217 130.004 99.7217C129.452 99.7217 129.452 100.549 130.004 100.549Z" fill="#F5A623"/>
<path d="M129.59 93.9823C130.115 93.9823 130.115 93.1543 129.59 93.1543C129.066 93.1543 129.066 93.9823 129.59 93.9823Z" fill="#F5A623"/>
<path d="M121.312 99.5284C121.837 99.5284 121.837 98.7007 121.312 98.7007C120.76 98.7007 120.76 99.5284 121.312 99.5284Z" fill="#F5A623"/>
<path d="M126.775 100.549C127.299 100.549 127.299 99.7217 126.775 99.7217C126.223 99.7217 126.223 100.549 126.775 100.549Z" fill="#F5A623"/>
<path d="M128.182 87.4696C128.706 87.4696 128.706 86.6416 128.182 86.6416C127.658 86.6416 127.658 87.4696 128.182 87.4696Z" fill="#F5A623"/>
<path d="M130.004 86.6969C130.528 86.6969 130.528 85.8691 130.004 85.8691C129.452 85.8691 129.452 86.6969 130.004 86.6969Z" fill="#F5A623"/>
<path d="M128.404 89.9532C128.928 89.9532 128.928 89.1255 128.404 89.1255C127.852 89.1255 127.852 89.9532 128.404 89.9532Z" fill="#F5A623"/>
<path d="M127.163 92.1334C127.687 92.1334 127.687 91.3057 127.163 91.3057C126.638 91.3057 126.638 92.1334 127.163 92.1334Z" fill="#F5A623"/>
<path d="M128.79 95.9967C129.314 95.9967 129.314 95.1689 128.79 95.1689C128.265 95.1689 128.265 95.9967 128.79 95.9967Z" fill="#F5A623"/>
<path d="M127.797 98.2867C128.322 98.2867 128.322 97.459 127.797 97.459C127.273 97.459 127.273 98.2867 127.797 98.2867Z" fill="#F5A623"/>
<path d="M127.99 103.143C128.873 103.143 128.873 101.791 127.99 101.791C127.107 101.764 127.107 103.143 127.99 103.143Z" fill="#F5A623"/>
<path d="M100.257 102.481C100.781 102.481 100.781 101.653 100.257 101.653C99.7322 101.653 99.7322 102.481 100.257 102.481Z" fill="#F5A623"/>
<path d="M103.596 102.205C104.121 102.205 104.121 101.377 103.596 101.377C103.072 101.377 103.072 102.205 103.596 102.205Z" fill="#F5A623"/>
<path d="M36.7893 41.2213H16.2314C15.238 41.2213 14.4102 40.3936 14.4102 39.4001V33.9088C14.4102 33.7433 14.5205 33.6328 14.6861 33.6328C14.8517 33.6328 14.962 33.7433 14.962 33.9088V39.4001C14.962 40.0901 15.5415 40.6696 16.2314 40.6696H36.7893C37.4793 40.6696 38.0585 40.0901 38.0585 39.4001V33.9088C38.0585 33.7433 38.169 33.6328 38.3345 33.6328C38.5003 33.6328 38.6105 33.7433 38.6105 33.9088V39.4001C38.6105 40.4211 37.8103 41.2213 36.7893 41.2213Z" fill="#F5A623"/>
<path d="M36.3483 38.6274C36.1828 38.6274 36.0723 38.5169 36.0723 38.3514V34.8744C36.0723 34.7089 36.1828 34.5986 36.3483 34.5986C36.5138 34.5986 36.6243 34.7089 36.6243 34.8744V38.3514C36.6243 38.5169 36.5138 38.6274 36.3483 38.6274Z" fill="#F5A623"/>
<path d="M14.6861 24.4714C14.5205 24.4714 14.4102 24.361 14.4102 24.1955V20.7461C14.4102 20.5806 14.5205 20.4702 14.6861 20.4702C14.8517 20.4702 14.962 20.5806 14.962 20.7461V24.2231C14.962 24.361 14.8517 24.4714 14.6861 24.4714Z" fill="#F5A623"/>
<path d="M21.0603 31.9773H8.31158C6.46276 31.9773 4.97266 30.4871 4.97266 28.6383C4.97266 26.7896 6.46276 25.2993 8.31158 25.2993H21.0603C22.9091 25.2993 24.3992 26.7896 24.3992 28.6383C24.3716 30.4871 22.8815 31.9773 21.0603 31.9773Z" fill="#FFD573"/>
<path d="M42.9424 31.9773H33.6984C31.8494 31.9773 30.3594 30.4871 30.3594 28.6383C30.3594 26.7896 31.8494 25.2993 33.6984 25.2993H42.9424C44.7914 25.2993 46.2814 26.7896 46.2814 28.6383C46.2814 30.4871 44.7914 31.9773 42.9424 31.9773Z" fill="#F5A623"/>
<path d="M21.06 19.6146H8.31135C6.4901 19.6146 5 18.1245 5 16.3033C5 14.4545 6.4901 12.9644 8.33892 12.9644H21.0876C22.9364 12.9644 24.4265 14.4545 24.4265 16.3033C24.3713 18.1245 22.8812 19.6146 21.06 19.6146Z" fill="#B0C1E1"/>
<path d="M57.1554 47.1266H15.543C14.9359 47.1266 14.4668 46.6576 14.4668 46.0504C14.4668 45.4434 14.9359 44.9741 15.543 44.9741H57.1554C57.7627 44.9741 58.2317 45.4434 58.2317 46.0504C58.2317 46.6299 57.7627 47.1266 57.1554 47.1266Z" fill="#FFD573"/>
<path d="M57.1554 50.7965H15.543C14.9359 50.7965 14.4668 50.3273 14.4668 49.7203C14.4668 49.1133 14.9359 48.644 15.543 48.644H57.1554C57.7627 48.644 58.2317 49.1133 58.2317 49.7203C58.2317 50.3273 57.7627 50.7965 57.1554 50.7965Z" fill="#FFD573"/>
<path d="M25.4758 62.6346H18.4669C17.6391 62.6346 16.9492 61.9449 16.9492 61.1169C16.9492 60.2891 17.6391 59.5991 18.4669 59.5991H25.4483C26.2761 59.5991 26.9661 60.2891 26.9661 61.1169C26.9661 61.9449 26.3038 62.6346 25.4758 62.6346Z" fill="#F5A623"/>
<path d="M32.8709 62.6346H29.9181C29.0904 62.6346 28.4004 61.9449 28.4004 61.1169C28.4004 60.2891 29.0904 59.5991 29.9181 59.5991H32.8709C33.6986 59.5991 34.3886 60.2891 34.3886 61.1169C34.3886 61.9449 33.6986 62.6346 32.8709 62.6346Z" fill="#F5A623"/>
<path d="M50.0907 62.6346H37.5627C36.7349 62.6346 36.0449 61.9449 36.0449 61.1169C36.0449 60.2891 36.7349 59.5991 37.5627 59.5991H50.0907C50.9184 59.5991 51.6084 60.2891 51.6084 61.1169C51.6084 61.9449 50.9184 62.6346 50.0907 62.6346Z" fill="#F5A623"/>
<path d="M32.3471 68.3189H18.4669C17.6391 68.3189 16.9492 67.6292 16.9492 66.8014C16.9492 65.9734 17.6391 65.2837 18.4669 65.2837H32.3193C33.1473 65.2837 33.8371 65.9734 33.8371 66.8014C33.8371 67.6292 33.1748 68.3189 32.3471 68.3189Z" fill="#F5A623"/>
<path d="M50.0907 68.3189H37.5627C36.7349 68.3189 36.0449 67.6292 36.0449 66.8014C36.0449 65.9734 36.7349 65.2837 37.5627 65.2837H50.0907C50.9184 65.2837 51.6084 65.9734 51.6084 66.8014C51.6084 67.6292 50.9184 68.3189 50.0907 68.3189Z" fill="#F5A623"/>
<path d="M25.4758 73.9762H18.4669C17.6391 73.9762 16.9492 73.2864 16.9492 72.4584C16.9492 71.6307 17.6391 70.9409 18.4669 70.9409H25.4483C26.2761 70.9409 26.9661 71.6307 26.9661 72.4584C26.9661 73.2864 26.3038 73.9762 25.4758 73.9762Z" fill="#F5A623"/>
<path d="M50.0899 73.9762H29.9181C29.0904 73.9762 28.4004 73.2864 28.4004 72.4584C28.4004 71.6307 29.0904 70.9409 29.9181 70.9409H50.0899C50.9176 70.9409 51.6074 71.6307 51.6074 72.4584C51.6074 73.2864 50.9176 73.9762 50.0899 73.9762Z" fill="#F5A623"/>
<path d="M39.9906 79.6329H18.4669C17.6391 79.6329 16.9492 78.9432 16.9492 78.1152C16.9492 77.2874 17.6391 76.5977 18.4669 76.5977H39.9906C40.8186 76.5977 41.5083 77.2874 41.5083 78.1152C41.5083 78.9432 40.8461 79.6329 39.9906 79.6329Z" fill="#F5A623"/>
<path d="M50.0903 91.3055H18.4669C17.6391 91.3055 16.9492 90.6155 16.9492 89.7878C16.9492 88.96 17.6391 88.27 18.4669 88.27H50.0903C50.9181 88.27 51.6078 88.96 51.6078 89.7878C51.6078 90.6155 50.9181 91.3055 50.0903 91.3055Z" fill="#F5A623"/>
<path d="M32.3471 96.9623H18.4669C17.6391 96.9623 16.9492 96.2723 16.9492 95.4445C16.9492 94.6165 17.6391 93.9268 18.4669 93.9268H32.3193C33.1473 93.9268 33.8371 94.6165 33.8371 95.4445C33.8371 96.2723 33.1748 96.9623 32.3471 96.9623Z" fill="#F5A623"/>
<path d="M50.0907 96.9623H37.5627C36.7349 96.9623 36.0449 96.2723 36.0449 95.4445C36.0449 94.6165 36.7349 93.9268 37.5627 93.9268H50.0907C50.9184 93.9268 51.6084 94.6165 51.6084 95.4445C51.6084 96.2723 50.9184 96.9623 50.0907 96.9623Z" fill="#F5A623"/>
<path d="M25.4758 102.646H18.4669C17.6391 102.646 16.9492 101.956 16.9492 101.129C16.9492 100.301 17.6391 99.6108 18.4669 99.6108H25.4483C26.2761 99.6108 26.9661 100.301 26.9661 101.129C26.9661 101.956 26.3038 102.646 25.4758 102.646Z" fill="#F5A623"/>
<path d="M50.0899 102.646H29.9181C29.0904 102.646 28.4004 101.956 28.4004 101.129C28.4004 100.301 29.0904 99.6108 29.9181 99.6108H50.0899C50.9176 99.6108 51.6074 100.301 51.6074 101.129C51.6074 101.956 50.9176 102.646 50.0899 102.646Z" fill="#F5A623"/>
<path d="M39.9906 108.304H18.4669C17.6391 108.304 16.9492 107.614 16.9492 106.786C16.9492 105.958 17.6391 105.268 18.4669 105.268H39.9906C40.8186 105.268 41.5083 105.958 41.5083 106.786C41.5083 107.614 40.8461 108.304 39.9906 108.304Z" fill="#F5A623"/>
<path d="M184.337 30.1561H172.858C172.03 30.1561 171.34 29.4664 171.34 28.6384C171.34 27.8106 172.03 27.1206 172.858 27.1206H184.337C185.165 27.1206 185.855 27.8106 185.855 28.6384C185.855 29.4664 185.192 30.1561 184.337 30.1561Z" fill="#F5A623"/>
<path d="M178.432 36.3922H158.178C157.35 36.3922 156.66 35.7024 156.66 34.8747C156.66 34.0467 157.35 33.3569 158.178 33.3569H178.432C179.26 33.3569 179.95 34.0467 179.95 34.8747C179.95 35.7024 179.26 36.3922 178.432 36.3922Z" fill="#F5A623"/>
<path d="M185.083 42.4632H164.828C164.001 42.4632 163.311 41.7732 163.311 40.9455C163.311 40.1175 164.001 39.4277 164.828 39.4277H185.083C185.911 39.4277 186.6 40.1175 186.6 40.9455C186.6 41.7732 185.938 42.4632 185.083 42.4632Z" fill="#F5A623"/>
<path d="M185.966 36.3922H184.338C183.51 36.3922 182.82 35.7024 182.82 34.8747C182.82 34.0467 183.51 33.3569 184.338 33.3569H185.966C186.794 33.3569 187.484 34.0467 187.484 34.8747C187.484 35.7024 186.794 36.3922 185.966 36.3922Z" fill="#F5A623"/>
<path d="M34.3071 30.8457C35.5264 30.8457 36.5146 29.8574 36.5146 28.6382C36.5146 27.4189 35.5264 26.4307 34.3071 26.4307C33.0879 26.4307 32.0996 27.4189 32.0996 28.6382C32.0996 29.8574 33.0879 30.8457 34.3071 30.8457Z" fill="#FFD573"/>
<path d="M190.547 111.174H156.799C154.426 111.174 152.494 109.242 152.494 106.869V74.5831C152.494 72.2101 154.426 70.2783 156.799 70.2783H190.547C192.92 70.2783 194.852 72.2101 194.852 74.5831V106.869C194.852 109.214 192.92 111.174 190.547 111.174ZM156.799 70.8026C154.729 70.8026 153.046 72.4861 153.046 74.5556V106.841C153.046 108.911 154.729 110.594 156.799 110.594H190.547C192.617 110.594 194.3 108.911 194.3 106.841V74.5556C194.3 72.4861 192.617 70.8026 190.547 70.8026H156.799Z" fill="#F5A623"/>
<path opacity="0.8" d="M193.14 112.94H159.392C157.157 112.94 155.363 111.146 155.363 108.911V76.6254C155.363 74.3902 157.157 72.5967 159.392 72.5967H193.14C195.375 72.5967 197.169 74.3902 197.169 76.6254V108.911C197.169 111.119 195.375 112.94 193.14 112.94Z" fill="#FFD573"/>
<path d="M160.662 77.5078C161.226 77.5078 161.683 77.0508 161.683 76.4868C161.683 75.9231 161.226 75.4658 160.662 75.4658C160.098 75.4658 159.641 75.9231 159.641 76.4868C159.641 77.0508 160.098 77.5078 160.662 77.5078Z" fill="#F5A623"/>
<path d="M163.531 77.5078C164.095 77.5078 164.552 77.0508 164.552 76.4868C164.552 75.9231 164.095 75.4658 163.531 75.4658C162.967 75.4658 162.51 75.9231 162.51 76.4868C162.51 77.0508 162.967 77.5078 163.531 77.5078Z" fill="#F5A623"/>
<path d="M166.429 77.5078C166.993 77.5078 167.45 77.0508 167.45 76.4868C167.45 75.9231 166.993 75.4658 166.429 75.4658C165.865 75.4658 165.408 75.9231 165.408 76.4868C165.408 77.0508 165.865 77.5078 166.429 77.5078Z" fill="#B0C1E1"/>
<path d="M190.023 83.4687H161.684C160.607 83.4687 159.752 82.6132 159.752 81.537C159.752 80.461 160.607 79.6055 161.684 79.6055H190.023C191.099 79.6055 191.955 80.461 191.955 81.537C191.955 82.6132 191.099 83.4687 190.023 83.4687Z" fill="#EAEAEA"/>
<path d="M171.451 86.835H160.248V98.0382H171.451V86.835Z" fill="#EAEAEA"/>
<path d="M192.284 86.835H173.658V98.0382H192.284V86.835Z" fill="#EAEAEA"/>
<path d="M175.425 109.656C175.452 109.683 175.507 109.683 175.535 109.711C175.59 109.738 175.645 109.766 175.701 109.766C175.756 109.766 175.811 109.766 175.866 109.766C175.922 109.766 175.977 109.738 176.004 109.683C176.06 109.656 176.087 109.628 176.115 109.573C176.142 109.545 176.142 109.518 176.17 109.462C176.198 109.38 176.198 109.324 176.17 109.242C176.142 109.214 176.142 109.186 176.115 109.131C176.087 109.076 176.032 109.021 175.977 108.993C175.949 108.966 175.894 108.966 175.866 108.938C175.811 108.911 175.756 108.883 175.701 108.883C175.645 108.883 175.59 108.883 175.535 108.883C175.48 108.883 175.425 108.911 175.397 108.966C175.342 108.993 175.314 109.021 175.287 109.076C175.259 109.104 175.259 109.131 175.232 109.186C175.204 109.269 175.204 109.324 175.232 109.407C175.259 109.435 175.259 109.462 175.287 109.518C175.314 109.573 175.369 109.628 175.425 109.656Z" fill="#F5A623"/>
<path d="M183.233 109.187C183.757 109.187 183.757 108.359 183.233 108.359C182.709 108.359 182.709 109.187 183.233 109.187Z" fill="#F5A623"/>
<path d="M174.045 111.367C174.569 111.367 174.569 110.539 174.045 110.539C173.493 110.539 173.493 111.367 174.045 111.367Z" fill="#F5A623"/>
<path d="M186.213 108.773C186.738 108.773 186.738 107.945 186.213 107.945C185.689 107.945 185.689 108.773 186.213 108.773Z" fill="#F5A623"/>
<path d="M186.959 111.256C187.483 111.256 187.483 110.428 186.959 110.428C186.407 110.428 186.407 111.256 186.959 111.256Z" fill="#F5A623"/>
<path d="M181.275 111.035C181.8 111.035 181.8 110.208 181.275 110.208C180.723 110.208 180.723 111.035 181.275 111.035Z" fill="#F5A623"/>
<path d="M194.851 94.4786C195.376 94.4786 195.376 93.6509 194.851 93.6509C194.3 93.6509 194.3 94.4786 194.851 94.4786Z" fill="#F5A623"/>
<path d="M195.956 89.8429C196.48 89.8429 196.48 89.0151 195.956 89.0151C195.431 89.0151 195.431 89.8429 195.956 89.8429Z" fill="#F5A623"/>
<path d="M193.139 99.1974C193.664 99.1974 193.664 98.3696 193.139 98.3696C192.615 98.3696 192.615 99.1974 193.139 99.1974Z" fill="#F5A623"/>
<path d="M190.961 107.752C191.485 107.752 191.485 106.924 190.961 106.924C190.409 106.924 190.409 107.752 190.961 107.752Z" fill="#F5A623"/>
<path d="M191.927 104.882C192.451 104.882 192.451 104.054 191.927 104.054C191.402 104.054 191.402 104.882 191.927 104.882Z" fill="#F5A623"/>
<path d="M180.363 109.766C180.887 109.766 180.887 108.938 180.363 108.938C179.811 108.938 179.811 109.766 180.363 109.766Z" fill="#F5A623"/>
<path d="M177.467 111.45C177.991 111.45 177.991 110.622 177.467 110.622C176.915 110.622 176.915 111.45 177.467 111.45Z" fill="#F5A623"/>
<path d="M184.144 110.815C184.669 110.815 184.669 109.987 184.144 109.987C183.592 109.987 183.592 110.815 184.144 110.815Z" fill="#F5A623"/>
<path d="M191.649 102.205C192.173 102.205 192.173 101.377 191.649 101.377C191.125 101.377 191.125 102.205 191.649 102.205Z" fill="#F5A623"/>
<path d="M188.476 106.786C189 106.786 189 105.958 188.476 105.958C187.952 105.958 187.924 106.786 188.476 106.786Z" fill="#F5A623"/>
<path d="M190.546 111.367C191.07 111.367 191.07 110.539 190.546 110.539C190.021 110.539 190.021 111.367 190.546 111.367Z" fill="#F5A623"/>
<path d="M195.237 104.247C195.761 104.247 195.761 103.419 195.237 103.419C194.713 103.419 194.713 104.247 195.237 104.247Z" fill="#F5A623"/>
<path d="M188.476 109.38C189 109.38 189 108.552 188.476 108.552C187.952 108.552 187.924 109.38 188.476 109.38Z" fill="#F5A623"/>
<path d="M191.927 109.849C192.451 109.849 192.451 109.021 191.927 109.021C191.402 109.021 191.402 109.849 191.927 109.849Z" fill="#F5A623"/>
<path d="M195.375 97.3209C195.899 97.3209 195.899 96.4932 195.375 96.4932C194.823 96.4932 194.823 97.3209 195.375 97.3209Z" fill="#F5A623"/>
<path d="M195.569 99.8046C196.093 99.8046 196.093 98.9766 195.569 98.9766C195.045 98.9766 195.045 99.8046 195.569 99.8046Z" fill="#F5A623"/>
<path d="M194.355 101.984C194.88 101.984 194.88 101.157 194.355 101.157C193.803 101.157 193.803 101.984 194.355 101.984Z" fill="#F5A623"/>
<path d="M193.94 106.675C194.464 106.675 194.464 105.848 193.94 105.848C193.416 105.848 193.416 106.675 193.94 106.675Z" fill="#F5A623"/>
<path d="M194.962 108.138C195.486 108.138 195.486 107.31 194.962 107.31C194.437 107.31 194.437 108.138 194.962 108.138Z" fill="#F5A623"/>
<path d="M167.588 111.422C168.113 111.422 168.113 110.594 167.588 110.594C167.064 110.594 167.064 111.422 167.588 111.422Z" fill="#F5A623"/>
<path d="M170.927 111.173C171.451 111.173 171.451 110.346 170.927 110.346C170.403 110.346 170.375 111.173 170.927 111.173Z" fill="#F5A623"/>
<path opacity="0.66" d="M182.958 63.711H119.794C116.649 63.711 114.082 61.1447 114.082 57.999V57.0055C114.082 53.8597 116.649 51.2935 119.794 51.2935H182.958C186.104 51.2935 188.67 53.8597 188.67 57.0055V57.999C188.67 61.1447 186.104 63.711 182.958 63.711Z" fill="#B0C1E1"/>
<path d="M139.746 56.7294H119.188C118.581 56.7294 118.111 56.2604 118.111 55.6531C118.111 55.0461 118.581 54.5771 119.188 54.5771H139.746C140.353 54.5771 140.822 55.0461 140.822 55.6531C140.822 56.2326 140.353 56.7294 139.746 56.7294Z" fill="#FFD573"/>
<path d="M183.29 60.3996H119.188C118.581 60.3996 118.111 59.9303 118.111 59.3233C118.111 58.7163 118.581 58.2471 119.188 58.2471H183.29C183.897 58.2471 184.366 58.7163 184.366 59.3233C184.366 59.9303 183.897 60.3996 183.29 60.3996Z" fill="#FFD573"/>
<path d="M57.8722 143.928C57.7067 143.928 57.5962 143.817 57.5962 143.652C57.5962 143.072 57.1547 142.769 56.6029 142.41C56.0234 142.024 55.3887 141.61 55.3887 140.727C55.3887 139.844 56.0509 139.402 56.6029 139.044C57.1272 138.685 57.5962 138.381 57.5962 137.802C57.5962 137.222 57.1547 136.919 56.6029 136.56C56.0234 136.174 55.3887 135.76 55.3887 134.877C55.3887 133.994 56.0509 133.58 56.6029 133.194C57.1272 132.835 57.5962 132.531 57.5962 131.952C57.5962 131.372 57.1547 131.069 56.6029 130.71C56.0234 130.324 55.3887 129.91 55.3887 129.027C55.3887 128.144 56.0509 127.73 56.6029 127.344C57.1272 126.985 57.5962 126.709 57.5962 126.102C57.5962 125.495 57.1547 125.219 56.6029 124.86C56.0234 124.474 55.3887 124.06 55.3887 123.177C55.3887 122.294 56.0509 121.88 56.6029 121.494C57.1272 121.135 57.5962 120.831 57.5962 120.252C57.5962 119.672 57.1547 119.369 56.6029 119.01C56.0234 118.624 55.3887 118.21 55.3887 117.327C55.3887 116.444 56.0509 116.03 56.6029 115.643C57.1272 115.285 57.5962 114.981 57.5962 114.402C57.5962 113.822 57.1547 113.519 56.6029 113.16C56.0234 112.774 55.3887 112.36 55.3887 111.477C55.3887 110.594 56.0509 110.18 56.6029 109.793C57.1272 109.435 57.5962 109.131 57.5962 108.552C57.5962 108.386 57.7067 108.276 57.8722 108.276C58.0377 108.276 58.1482 108.386 58.1482 108.552C58.1482 109.435 57.4859 109.849 56.9339 110.235C56.4097 110.594 55.9404 110.87 55.9404 111.477C55.9404 112.084 56.3822 112.36 56.9339 112.718C57.5134 113.105 58.1482 113.519 58.1482 114.402C58.1482 115.285 57.4859 115.699 56.9339 116.085C56.4097 116.444 55.9404 116.747 55.9404 117.327C55.9404 117.906 56.3822 118.21 56.9339 118.569C57.5134 118.955 58.1482 119.369 58.1482 120.252C58.1482 121.135 57.4859 121.549 56.9339 121.935C56.4097 122.294 55.9404 122.597 55.9404 123.177C55.9404 123.756 56.3822 124.06 56.9339 124.419C57.5134 124.805 58.1482 125.219 58.1482 126.102C58.1482 126.985 57.4859 127.399 56.9339 127.785C56.4097 128.144 55.9404 128.42 55.9404 129.027C55.9404 129.634 56.3822 129.91 56.9339 130.269C57.5134 130.655 58.1482 131.069 58.1482 131.952C58.1482 132.835 57.4859 133.276 56.9339 133.635C56.4097 133.994 55.9404 134.297 55.9404 134.877C55.9404 135.456 56.3822 135.76 56.9339 136.119C57.5134 136.505 58.1482 136.919 58.1482 137.802C58.1482 138.685 57.4859 139.126 56.9339 139.485C56.4097 139.844 55.9404 140.147 55.9404 140.727C55.9404 141.306 56.3822 141.61 56.9339 141.969C57.5134 142.355 58.1482 142.769 58.1482 143.652C58.1482 143.79 58.0377 143.928 57.8722 143.928Z" fill="#F5A623"/>
<path d="M151.749 138.851H147.306C146.727 138.851 146.258 138.381 146.258 137.802V133.359C146.258 132.78 146.727 132.311 147.306 132.311H151.749C152.329 132.311 152.798 132.78 152.798 133.359C152.798 133.525 152.687 133.635 152.522 133.635C152.356 133.635 152.246 133.525 152.246 133.359C152.246 133.083 152.025 132.863 151.749 132.863H147.306C147.03 132.863 146.81 133.083 146.81 133.359V137.802C146.81 138.078 147.03 138.299 147.306 138.299H151.749C152.025 138.299 152.246 138.078 152.246 137.802V136.395C152.246 136.229 152.356 136.119 152.522 136.119C152.687 136.119 152.798 136.229 152.798 136.395V137.802C152.825 138.381 152.329 138.851 151.749 138.851Z" fill="#F5A623"/>
<path d="M150.81 137.112L149.265 135.567C149.154 135.457 149.154 135.291 149.265 135.181C149.375 135.07 149.54 135.07 149.651 135.181L150.782 136.312L155.39 131.593C155.501 131.483 155.666 131.483 155.777 131.593C155.887 131.704 155.887 131.869 155.777 131.98L150.81 137.112Z" fill="#F5A623"/>
<path d="M160.496 134.243H155.611V135.567H160.496V134.243Z" fill="#EAEAEA"/>
<path d="M164.938 137.112H155.611V138.437H164.938V137.112Z" fill="#EAEAEA"/>
<path d="M158.73 127.261H154.26C153.68 127.261 153.211 126.792 153.211 126.212V121.77C153.211 121.19 153.68 120.721 154.26 120.721H158.702C159.282 120.721 159.751 121.19 159.751 121.77C159.751 121.935 159.64 122.046 159.475 122.046C159.309 122.046 159.199 121.935 159.199 121.77C159.199 121.494 158.978 121.273 158.702 121.273H154.26C153.984 121.273 153.763 121.494 153.763 121.77V126.212C153.763 126.488 153.984 126.709 154.26 126.709H158.702C158.978 126.709 159.199 126.488 159.199 126.212V124.805C159.199 124.639 159.309 124.529 159.475 124.529C159.64 124.529 159.751 124.639 159.751 124.805V126.212C159.778 126.792 159.309 127.261 158.73 127.261Z" fill="#F5A623"/>
<path d="M157.765 125.495L156.219 123.95C156.109 123.839 156.109 123.673 156.219 123.563C156.33 123.453 156.495 123.453 156.606 123.563L157.737 124.695L162.345 119.976C162.456 119.866 162.621 119.866 162.732 119.976C162.842 120.086 162.842 120.252 162.732 120.362L157.765 125.495Z" fill="#F5A623"/>
<path d="M167.451 122.652H162.566V123.977H167.451V122.652Z" fill="#EAEAEA"/>
<path d="M171.893 125.522H162.566V126.847H171.893V125.522Z" fill="#EAEAEA"/>
<path d="M177.024 138.851H172.582C172.002 138.851 171.533 138.381 171.533 137.802V133.359C171.533 132.78 172.002 132.311 172.582 132.311H177.024C177.604 132.311 178.073 132.78 178.073 133.359C178.073 133.525 177.963 133.635 177.797 133.635C177.631 133.635 177.521 133.525 177.521 133.359C177.521 133.083 177.3 132.863 177.024 132.863H172.582C172.306 132.863 172.085 133.083 172.085 133.359V137.802C172.085 138.078 172.306 138.299 172.582 138.299H177.024C177.3 138.299 177.521 138.078 177.521 137.802V136.395C177.521 136.229 177.631 136.119 177.797 136.119C177.963 136.119 178.073 136.229 178.073 136.395V137.802C178.073 138.381 177.604 138.851 177.024 138.851Z" fill="#F5A623"/>
<path d="M176.06 137.112L174.514 135.567C174.404 135.457 174.404 135.291 174.514 135.181C174.625 135.07 174.79 135.07 174.901 135.181L176.032 136.312L180.64 131.593C180.751 131.483 180.916 131.483 181.027 131.593C181.137 131.704 181.137 131.869 181.027 131.98L176.06 137.112Z" fill="#F5A623"/>
<path d="M185.746 134.243H180.861V135.567H185.746V134.243Z" fill="#EAEAEA"/>
<path d="M190.188 137.112H180.861V138.437H190.188V137.112Z" fill="#EAEAEA"/>
<path d="M183.98 127.261H179.537C178.958 127.261 178.488 126.792 178.488 126.212V121.77C178.488 121.19 178.958 120.721 179.537 120.721H183.98C184.559 120.721 185.028 121.19 185.028 121.77C185.028 121.935 184.918 122.046 184.752 122.046C184.587 122.046 184.476 121.935 184.476 121.77C184.476 121.494 184.256 121.273 183.98 121.273H179.537C179.261 121.273 179.04 121.494 179.04 121.77V126.212C179.04 126.488 179.261 126.709 179.537 126.709H183.98C184.256 126.709 184.476 126.488 184.476 126.212V124.805C184.476 124.639 184.587 124.529 184.752 124.529C184.918 124.529 185.028 124.639 185.028 124.805V126.212C185.028 126.792 184.559 127.261 183.98 127.261Z" fill="#F5A623"/>
<path d="M183.04 125.495L181.495 123.95C181.385 123.839 181.385 123.673 181.495 123.563C181.605 123.453 181.771 123.453 181.881 123.563L183.013 124.695L187.621 119.976C187.731 119.866 187.897 119.866 188.007 119.976C188.118 120.086 188.118 120.252 188.007 120.362L183.04 125.495Z" fill="#F5A623"/>
<path d="M192.726 122.652H187.842V123.977H192.726V122.652Z" fill="#EAEAEA"/>
<path d="M197.169 125.522H187.842V126.847H197.169V125.522Z" fill="#EAEAEA"/>
<path d="M144.658 82.5303H139.773V83.8548H144.658V82.5303Z" fill="#EAEAEA"/>
<path d="M144.658 88.27H139.773V89.5945H144.658V88.27Z" fill="#EAEAEA"/>
<path d="M149.1 85.3999H139.773V86.7244H149.1V85.3999Z" fill="#EAEAEA"/>
<path d="M149.1 91.1401H139.773V92.4646H149.1V91.1401Z" fill="#EAEAEA"/>
<path d="M15.1553 136.257C14.2171 136.257 13.4997 136.064 13.1133 135.65C11.0438 133.332 9.25012 125.523 9.16734 125.191C9.13974 125.054 9.22252 124.888 9.38809 124.86C9.52607 124.833 9.69164 124.916 9.71922 125.081C9.74682 125.164 11.5681 133.084 13.5549 135.291C14.769 136.643 21.3089 134.601 26.5795 132.946C29.6148 132.007 32.457 131.097 34.1955 130.876C37.7 130.407 41.508 128.503 42.9983 126.488C43.4673 125.826 43.688 125.219 43.5778 124.695C43.1638 122.184 40.9285 116.416 40.901 116.361C40.8458 116.223 40.9285 116.058 41.0665 116.003C41.2045 115.947 41.37 116.03 41.4253 116.168C41.508 116.416 43.688 122.046 44.1295 124.612C44.24 125.302 44.0193 126.047 43.4398 126.82C41.8668 128.972 37.9208 130.959 34.2783 131.428C32.595 131.649 29.7528 132.532 26.745 133.47C22.3023 134.85 17.8044 136.257 15.1553 136.257Z" fill="#F5A623"/>
<path d="M18.6323 132.421C20.8573 132.421 22.6611 130.617 22.6611 128.392C22.6611 126.167 20.8573 124.363 18.6323 124.363C16.4073 124.363 14.6035 126.167 14.6035 128.392C14.6035 130.617 16.4073 132.421 18.6323 132.421Z" fill="#FFD573"/>
<path d="M38.1864 118.04L24.5977 122.386L25.1019 123.963L38.6907 119.617L38.1864 118.04Z" fill="#FFD573"/>
<path d="M39.1298 120.992L25.541 125.338L26.0453 126.915L39.634 122.569L39.1298 120.992Z" fill="#FFD573"/>
<path d="M40.0653 123.918L26.4766 128.263L26.9808 129.84L40.5696 125.495L40.0653 123.918Z" fill="#FFD573"/>
<path d="M162.593 26.4583C160.248 26.4583 157.406 25.796 155.115 24.6094C153.598 23.8368 150.783 22.9261 147.775 21.9879C141.815 20.1115 135.661 18.1523 135.385 15.9999C135.027 12.9093 138.007 5.48641 138.145 5.18286C138.2 5.04488 138.365 4.96211 138.503 5.01728C138.641 5.07248 138.724 5.23806 138.669 5.37603C138.641 5.45881 135.606 12.9921 135.965 15.9447C136.186 17.7384 142.725 19.808 147.968 21.4912C151.004 22.457 153.846 23.3677 155.391 24.1403C158.537 25.7683 162.731 26.3755 165.132 25.5753C165.905 25.3268 166.402 24.9405 166.65 24.4438C167.754 22.1535 169.216 16.1379 169.244 16.0827C169.271 15.9447 169.437 15.8343 169.575 15.8895C169.713 15.9171 169.823 16.0827 169.768 16.2207C169.713 16.469 168.278 22.3191 167.147 24.6922C166.843 25.3268 166.236 25.796 165.325 26.127C164.525 26.3203 163.587 26.4583 162.593 26.4583Z" fill="#F5A623"/>
<path d="M144.05 17.2417C146.275 17.2417 148.079 15.4379 148.079 13.2129C148.079 10.9878 146.275 9.18408 144.05 9.18408C141.825 9.18408 140.021 10.9878 140.021 13.2129C140.021 15.4379 141.825 17.2417 144.05 17.2417Z" fill="#FFD573"/>
<path d="M166.015 15.9309L152.388 11.7109L151.898 13.2924L165.526 17.5124L166.015 15.9309Z" fill="#FFD573"/>
<path d="M165.111 18.8572L151.484 14.6372L150.994 16.2187L164.621 20.4387L165.111 18.8572Z" fill="#FFD573"/>
<path d="M164.197 21.8098L150.57 17.5898L150.08 19.1713L163.707 23.3913L164.197 21.8098Z" fill="#FFD573"/>
<path d="M35.0514 137.361C35.5756 137.361 35.5756 136.533 35.0514 136.533C34.5271 136.533 34.5271 137.361 35.0514 137.361Z" fill="#F5A623"/>
<path d="M25.6979 140.451C26.2221 140.451 26.2221 139.623 25.6979 139.623C25.1736 139.623 25.1736 140.451 25.6979 140.451Z" fill="#F5A623"/>
<path d="M38.0319 136.947C38.5561 136.947 38.5561 136.119 38.0319 136.119C37.5076 136.119 37.5076 136.947 38.0319 136.947Z" fill="#F5A623"/>
<path d="M32.1809 134.656C32.7052 134.656 32.7052 133.828 32.1809 133.828C31.6567 133.828 31.6292 134.656 32.1809 134.656Z" fill="#F5A623"/>
<path d="M38.7771 139.43C39.3013 139.43 39.3013 138.603 38.7771 138.603C38.2253 138.603 38.2253 139.43 38.7771 139.43Z" fill="#F5A623"/>
<path d="M32.9264 140.12C33.4506 140.12 33.4506 139.292 32.9264 139.292C32.4021 139.292 32.4021 140.12 32.9264 140.12Z" fill="#F5A623"/>
<path d="M42.7773 130.186C43.3015 130.186 43.3015 129.358 42.7773 129.358C42.2253 129.358 42.2253 130.186 42.7773 130.186Z" fill="#F5A623"/>
<path d="M36.5963 134.243C37.1206 134.243 37.1206 133.415 36.5963 133.415C36.0721 133.415 36.0721 134.243 36.5963 134.243Z" fill="#F5A623"/>
<path d="M49.3737 122.267C49.8979 122.267 49.8979 121.439 49.3737 121.439C48.8494 121.439 48.8494 122.267 49.3737 122.267Z" fill="#F5A623"/>
<path d="M47.5787 122.267C48.1032 122.267 48.1032 121.439 47.5787 121.439C47.0545 121.439 47.0545 122.267 47.5787 122.267Z" fill="#F5A623"/>
<path d="M47.8007 118.045C48.325 118.045 48.325 117.217 47.8007 117.217C47.2487 117.217 47.2487 118.045 47.8007 118.045Z" fill="#F5A623"/>
<path d="M41.9785 114.54C42.5027 114.54 42.5027 113.712 41.9785 113.712C41.4265 113.712 41.4265 114.54 41.9785 114.54Z" fill="#F5A623"/>
<path d="M44.9576 116.251C45.4821 116.251 45.4821 115.423 44.9576 115.423C44.4334 115.423 44.4334 116.251 44.9576 116.251Z" fill="#F5A623"/>
<path d="M15.9557 138.603C16.48 138.603 16.48 137.775 15.9557 137.775C15.4314 137.775 15.4314 138.603 15.9557 138.603Z" fill="#F5A623"/>
<path d="M44.9576 121.411C45.4821 121.411 45.4821 120.583 44.9576 120.583C44.4334 120.583 44.4334 121.411 44.9576 121.411Z" fill="#F5A623"/>
<path d="M46.778 120.059C47.3022 120.059 47.3022 119.231 46.778 119.231C46.2537 119.231 46.2537 120.059 46.778 120.059Z" fill="#F5A623"/>
<path d="M39.1627 133.828C39.687 133.828 39.687 133 39.1627 133C38.6385 133 38.6385 133.828 39.1627 133.828Z" fill="#F5A623"/>
<path d="M43.3574 136.533C43.8816 136.533 43.8816 135.705 43.3574 135.705C42.8054 135.705 42.8054 136.533 43.3574 136.533Z" fill="#F5A623"/>
<path d="M45.7584 132.67C46.2827 132.67 46.2827 131.842 45.7584 131.842C45.2342 131.842 45.2342 132.67 45.7584 132.67Z" fill="#F5A623"/>
<path d="M32.1809 137.94C32.7052 137.94 32.7052 137.112 32.1809 137.112C31.6567 137.112 31.6292 137.94 32.1809 137.94Z" fill="#F5A623"/>
<path d="M41.3697 132.256C41.8942 132.256 41.8942 131.428 41.3697 131.428C40.8455 131.428 40.8455 132.256 41.3697 132.256Z" fill="#F5A623"/>
<path d="M27.6276 134.656C28.1518 134.656 28.1518 133.828 27.6276 133.828C27.1033 133.828 27.1033 134.656 27.6276 134.656Z" fill="#F5A623"/>
<path d="M28.7322 138.189C29.2564 138.189 29.2564 137.361 28.7322 137.361C28.1804 137.361 28.1804 138.189 28.7322 138.189Z" fill="#F5A623"/>
<path d="M25.6979 137.554C26.2221 137.554 26.2221 136.726 25.6979 136.726C25.1736 136.726 25.1736 137.554 25.6979 137.554Z" fill="#F5A623"/>
<path d="M29.1178 140.534C29.642 140.534 29.642 139.706 29.1178 139.706C28.5935 139.706 28.5935 140.534 29.1178 140.534Z" fill="#F5A623"/>
<path d="M35.7955 139.899C36.3198 139.899 36.3198 139.071 35.7955 139.071C35.2713 139.071 35.2713 139.899 35.7955 139.899Z" fill="#F5A623"/>
<path d="M43.7428 133.083C44.2673 133.083 44.2673 132.255 43.7428 132.255C43.2185 132.255 43.2185 133.083 43.7428 133.083Z" fill="#F5A623"/>
<path d="M49.3737 128.42C49.8979 128.42 49.8979 127.592 49.3737 127.592C48.8494 127.592 48.8494 128.42 49.3737 128.42Z" fill="#F5A623"/>
<path d="M41.9785 134.85C42.5027 134.85 42.5027 134.022 41.9785 134.022C41.4265 134.022 41.4265 134.85 41.9785 134.85Z" fill="#F5A623"/>
<path d="M42.3639 139.568C42.8884 139.568 42.8884 138.741 42.3639 138.741C41.8396 138.741 41.8396 139.568 42.3639 139.568Z" fill="#F5A623"/>
<path d="M40.5709 141.334C41.0952 141.334 41.0952 140.506 40.5709 140.506C40.0467 140.506 40.0467 141.334 40.5709 141.334Z" fill="#F5A623"/>
<path d="M44.1569 141.472C44.6811 141.472 44.6811 140.644 44.1569 140.644C43.6326 140.644 43.6326 141.472 44.1569 141.472Z" fill="#F5A623"/>
<path d="M47.5787 140.948C48.1032 140.948 48.1032 140.12 47.5787 140.12C47.0545 140.12 47.0545 140.948 47.5787 140.948Z" fill="#F5A623"/>
<path d="M48.5731 136.533C49.0973 136.533 49.0973 135.705 48.5731 135.705C48.0486 135.705 48.0486 136.533 48.5731 136.533Z" fill="#F5A623"/>
<path d="M48.9869 138.603C49.5112 138.603 49.5112 137.775 48.9869 137.775C48.4627 137.775 48.4627 138.603 48.9869 138.603Z" fill="#F5A623"/>
<path d="M48.5731 132.007C49.0973 132.007 49.0973 131.18 48.5731 131.18C48.0486 131.18 48.0486 132.007 48.5731 132.007Z" fill="#F5A623"/>
<path d="M40.2936 137.554C40.8178 137.554 40.8178 136.726 40.2936 136.726C39.7693 136.726 39.7693 137.554 40.2936 137.554Z" fill="#F5A623"/>
<path d="M45.7584 138.603C46.2827 138.603 46.2827 137.775 45.7584 137.775C45.2342 137.775 45.2342 138.603 45.7584 138.603Z" fill="#F5A623"/>
<path d="M47.1933 125.523C47.7175 125.523 47.7175 124.695 47.1933 124.695C46.6413 124.695 46.6413 125.523 47.1933 125.523Z" fill="#F5A623"/>
<path d="M44.9576 126.516C45.4821 126.516 45.4821 125.688 44.9576 125.688C44.4334 125.688 44.4334 126.516 44.9576 126.516Z" fill="#F5A623"/>
<path d="M44.1569 118.872C44.6811 118.872 44.6811 118.044 44.1569 118.044C43.6326 118.044 43.6326 118.872 44.1569 118.872Z" fill="#F5A623"/>
<path d="M48.9869 124.722C49.5112 124.722 49.5112 123.894 48.9869 123.894C48.4627 123.894 48.4627 124.722 48.9869 124.722Z" fill="#F5A623"/>
<path d="M47.3856 128.006C47.9098 128.006 47.9098 127.178 47.3856 127.178C46.8611 127.178 46.8611 128.006 47.3856 128.006Z" fill="#F5A623"/>
<path d="M46.1716 130.186C46.6961 130.186 46.6961 129.358 46.1716 129.358C45.6199 129.358 45.6199 130.186 46.1716 130.186Z" fill="#F5A623"/>
<path d="M47.8007 134.022C48.325 134.022 48.325 133.194 47.8007 133.194C47.2487 133.194 47.2487 134.022 47.8007 134.022Z" fill="#F5A623"/>
<path d="M46.778 136.312C47.3022 136.312 47.3022 135.484 46.778 135.484C46.2537 135.484 46.2537 136.312 46.778 136.312Z" fill="#F5A623"/>
<path d="M20.0397 140.865C20.564 140.865 20.564 140.037 20.0397 140.037C19.5154 140.037 19.5154 140.865 20.0397 140.865Z" fill="#F5A623"/>
<path d="M12.4518 137.775C12.9761 137.775 12.9761 136.947 12.4518 136.947C11.9275 136.947 11.9275 137.775 12.4518 137.775Z" fill="#F5A623"/>
<path d="M22.9921 136.533C23.5164 136.533 23.5164 135.705 22.9921 135.705C22.4401 135.705 22.4401 136.533 22.9921 136.533Z" fill="#F5A623"/>
<path d="M22.9921 139.568C23.5164 139.568 23.5164 138.741 22.9921 138.741C22.4401 138.741 22.4401 139.568 22.9921 139.568Z" fill="#F5A623"/>
<path d="M18.8542 137.967C19.3785 137.967 19.3785 137.14 18.8542 137.14C18.3299 137.14 18.3299 137.967 18.8542 137.967Z" fill="#F5A623"/>
<path d="M5.63532 109.49C5.46975 109.49 5.35938 109.38 5.35938 109.214V101.156C5.35938 100.991 5.46975 100.88 5.63532 100.88C5.80087 100.88 5.91125 100.991 5.91125 101.156V109.214C5.91125 109.38 5.80087 109.49 5.63532 109.49Z" fill="#F5A623"/>
<path d="M7.43025 110.18C7.2647 110.18 7.1543 110.07 7.1543 109.904V101.846C7.1543 101.681 7.2647 101.57 7.43025 101.57C7.59582 101.57 7.7062 101.681 7.7062 101.846V109.904C7.7062 110.042 7.59582 110.18 7.43025 110.18Z" fill="#F5A623"/>
<path d="M10.3265 108.248C10.299 108.248 10.2714 108.248 10.2438 108.221L2.68286 105.461C2.54488 105.406 2.4621 105.241 2.51728 105.103C2.57248 104.965 2.73806 104.882 2.87603 104.937L10.4369 107.724C10.5749 107.779 10.6577 107.945 10.6025 108.083C10.5473 108.193 10.4369 108.248 10.3265 108.248Z" fill="#F5A623"/>
<path d="M10.3265 105.462C10.299 105.462 10.2714 105.462 10.2438 105.434L2.68286 102.675C2.54488 102.619 2.4621 102.454 2.51728 102.316C2.57248 102.178 2.73806 102.095 2.87603 102.15L10.4369 104.937C10.5749 104.992 10.6577 105.158 10.6025 105.296C10.5473 105.406 10.4369 105.462 10.3265 105.462Z" fill="#F5A623"/>
<path d="M150.092 44.3395C149.927 44.3395 149.816 44.229 149.816 44.0635V36.006C149.816 35.8402 149.927 35.73 150.092 35.73C150.258 35.73 150.368 35.8402 150.368 36.006V44.0635C150.368 44.2015 150.23 44.3395 150.092 44.3395Z" fill="#F5A623"/>
<path d="M151.887 45.0016C151.722 45.0016 151.611 44.8913 151.611 44.7258V36.6681C151.611 36.5026 151.722 36.3921 151.887 36.3921C152.053 36.3921 152.163 36.5026 152.163 36.6681V44.7258C152.163 44.8913 152.025 45.0016 151.887 45.0016Z" fill="#F5A623"/>
<path d="M154.783 43.0699C154.756 43.0699 154.728 43.0699 154.701 43.0424L147.14 40.2554C147.002 40.2002 146.919 40.0347 146.974 39.8967C147.029 39.7587 147.195 39.6759 147.333 39.7312L154.894 42.5182C155.032 42.5734 155.115 42.7389 155.059 42.8769C154.977 43.0149 154.894 43.0699 154.783 43.0699Z" fill="#F5A623"/>
<path d="M154.783 40.3107C154.756 40.3107 154.728 40.3107 154.701 40.2832L147.14 37.4962C147.002 37.4409 146.919 37.2754 146.974 37.1374C147.029 36.9994 147.195 36.9167 147.333 36.9719L154.894 39.7589C155.032 39.8139 155.115 39.9797 155.059 40.1177C154.977 40.2279 154.894 40.3107 154.783 40.3107Z" fill="#F5A623"/>
<path d="M56.2449 37.3578H56.2174L48.2424 36.3093C48.1044 36.2816 47.9941 36.1438 47.9941 36.0058C48.0216 35.8678 48.1596 35.7573 48.2976 35.7573L56.2724 36.8061C56.4104 36.8336 56.5209 36.9716 56.5209 37.1096C56.5209 37.2751 56.3829 37.3578 56.2449 37.3578Z" fill="#F5A623"/>
<path d="M57.155 35.6747H57.1275L49.1525 34.626C49.0148 34.5985 48.9043 34.4605 48.9043 34.3225C48.9318 34.1845 49.0698 34.0742 49.2078 34.0742L57.1825 35.1227C57.3205 35.1505 57.431 35.2885 57.431 35.4262C57.4035 35.592 57.293 35.6747 57.155 35.6747Z" fill="#F5A623"/>
<path d="M51.8831 39.7035C51.8278 39.7035 51.8003 39.7035 51.7451 39.676C51.6071 39.5933 51.5518 39.4278 51.6346 39.2898L55.3876 32.1703C55.4703 32.0323 55.6358 31.977 55.7738 32.06C55.9118 32.1428 55.9671 32.3083 55.8843 32.4463L52.1313 39.5655C52.0761 39.6485 51.9933 39.7035 51.8831 39.7035Z" fill="#F5A623"/>
<path d="M49.1252 39.3175C49.0699 39.3175 49.0424 39.3175 48.9872 39.29C48.8492 39.2072 48.7939 39.0417 48.8769 38.9312L52.6297 31.812C52.7124 31.674 52.8779 31.6187 53.0159 31.7015C53.1539 31.7842 53.2092 31.9497 53.1264 32.0602L49.3734 39.1795C49.3184 39.2625 49.2354 39.3175 49.1252 39.3175Z" fill="#F5A623"/>
</svg>
