<svg width="400" height="300" viewBox="0 0 400 300" fill="none" xmlns="http://www.w3.org/2000/svg">
<path opacity="0.11" d="M256.76 245.574H249.165V245.363C249.165 244.414 248.427 243.676 247.478 243.676H154.07C153.121 243.676 152.383 243.676 152.383 243.676L139.566 247.578L152.383 251.481C152.383 251.481 153.121 251.481 154.07 251.481H240.938L241.149 254.066H214.355C213.722 254.066 213.142 254.593 213.142 255.279C213.142 255.912 213.67 256.492 214.355 256.492H243.627C244.26 256.492 244.84 255.965 244.84 255.279C244.84 254.646 244.313 254.066 243.627 254.066H243.522V251.481H247.53C248.48 251.481 249.218 250.743 249.218 249.794V249.583H256.813C257.446 249.583 257.973 249.055 257.973 248.422V246.787C257.921 246.102 257.446 245.574 256.76 245.574Z" fill="#020202"/>
<path opacity="0.11" d="M315.463 240.458C314.25 240.458 313.301 239.509 313.301 238.296V120.1C313.301 118.887 314.25 117.937 315.463 117.937H389.197C390.41 117.937 391.36 118.887 391.36 120.1V238.296C391.36 239.509 390.41 240.458 389.197 240.458H315.463Z" fill="#020202"/>
<path opacity="0.31" d="M360.135 28.9604H199.164V274.267H360.135V28.9604Z" fill="#B3CAF8"/>
<path opacity="0.11" d="M64.5689 32.8477L29.0273 33.517L29.6419 66.1584L65.1834 65.4889L64.5689 32.8477Z" fill="#020202"/>
<path d="M64.0896 30.2261H29.332V64.9835H64.0896V30.2261Z" fill="#8FE4FF"/>
<path d="M386.663 233.602C386.663 234.445 385.978 235.184 385.134 235.184L320.524 236.344C319.68 236.344 318.994 235.659 318.941 234.815L316.938 125.743C316.938 124.899 317.623 124.161 318.467 124.161L383.024 123H383.077C383.921 123 384.606 123.686 384.606 124.53L386.663 233.602Z" fill="#B3CAF8"/>
<path d="M383.659 123.317L383.606 142.726L383.395 227.695C383.395 228.538 382.709 229.224 381.866 229.224H377.066L319.946 229.119C319.524 229.119 319.155 228.96 318.891 228.697L318.469 205.648V205.543L318.627 124.266V122.948C318.627 122.104 319.313 121.418 320.157 121.418L359.239 121.524L380.494 123.159L383.448 123.37C383.501 123.317 383.553 123.317 383.659 123.317Z" fill="white"/>
<path d="M64.1445 30.3319L59.345 64.773L27.3828 60.3425L29.4398 28.1167L63.828 30.2792L64.1445 30.3319Z" fill="#B3CAF8"/>
<path fill-rule="evenodd" clip-rule="evenodd" d="M288.443 22.776V18.9785H254.318V22.776H288.443ZM63.8772 30.2793L59.1832 58.602C58.8667 60.448 57.7592 61.9775 56.1242 62.8215L53.8032 63.982L48.3891 63.246L53.7507 64.0345L52.9067 64.4565H52.8542L48.3724 63.2435H48.3709L22.2633 56.387L23.2654 55.49C24.584 54.33 25.4279 52.7475 25.6916 51.007L29.4363 25.4797L63.8772 30.2793ZM329.596 86.344L295.261 119.941C293.942 121.26 291.41 122.262 289.564 122.262H107.444C105.651 122.262 103.119 121.207 101.748 119.941L67.4122 86.344C65.8827 84.8675 65.2497 83.496 65.6192 82.652C65.8302 82.1245 66.4632 81.808 67.5177 81.808H329.543C330.598 81.808 331.178 82.1245 331.389 82.652C331.706 83.496 331.126 84.8675 329.596 86.344ZM146.947 145.522H139.511C139.194 145.522 138.983 145.733 138.983 146.049V153.486C138.983 153.803 139.194 154.014 139.511 154.014H146.947C147.264 154.014 147.475 153.803 147.475 153.486V146.049C147.475 145.786 147.211 145.522 146.947 145.522ZM159.552 145.522H152.115C151.799 145.522 151.588 145.733 151.588 146.049V153.486C151.588 153.803 151.799 154.014 152.115 154.014H159.552C159.869 154.014 160.079 153.803 160.079 153.486V146.049C160.079 145.786 159.816 145.522 159.552 145.522ZM172.159 154.066H164.722C164.406 154.066 164.195 153.803 164.195 153.486V146.049C164.195 145.733 164.406 145.522 164.722 145.522H172.159C172.475 145.522 172.686 145.733 172.686 146.049V153.539C172.686 153.855 172.475 154.066 172.159 154.066ZM177.327 154.066H184.763C185.08 154.066 185.291 153.855 185.291 153.539V146.049C185.291 145.733 185.08 145.522 184.763 145.522H177.327C177.01 145.522 176.799 145.733 176.799 146.049V153.486C176.799 153.803 177.01 154.066 177.327 154.066ZM197.37 154.066H189.933C189.617 154.066 189.406 153.803 189.406 153.486V146.049C189.406 145.733 189.617 145.522 189.933 145.522H197.37C197.687 145.522 197.898 145.733 197.898 146.049V153.539C197.898 153.855 197.687 154.066 197.37 154.066ZM202.538 154.066H209.975C210.291 154.066 210.502 153.855 210.502 153.539V146.049C210.502 145.733 210.291 145.522 209.975 145.522H202.538C202.222 145.522 202.011 145.733 202.011 146.049V153.486C202.011 153.803 202.222 154.066 202.538 154.066ZM215.196 145.522H222.633C222.897 145.522 223.16 145.786 223.16 146.049V153.486C223.16 153.803 222.95 154.014 222.633 154.014H215.196C214.88 154.014 214.669 153.803 214.669 153.486V146.049C214.669 145.733 214.88 145.522 215.196 145.522ZM235.238 145.522H227.801C227.485 145.522 227.274 145.733 227.274 146.049V153.486C227.274 153.803 227.485 154.014 227.801 154.014H235.238C235.554 154.014 235.765 153.803 235.765 153.486V146.049C235.765 145.786 235.501 145.522 235.238 145.522ZM240.408 145.522H247.844C248.108 145.522 248.372 145.786 248.372 146.049V153.486C248.372 153.803 248.161 154.014 247.844 154.014H240.408C240.091 154.014 239.88 153.803 239.88 153.486V146.049C239.88 145.733 240.091 145.522 240.408 145.522ZM260.449 145.522H253.012C252.696 145.522 252.485 145.733 252.485 146.049V153.486C252.485 153.803 252.696 154.014 253.012 154.014H260.449C260.766 154.014 260.977 153.803 260.977 153.486V146.049C260.977 145.786 260.713 145.522 260.449 145.522ZM152.115 158.285H159.552C159.816 158.285 160.079 158.549 160.079 158.813V166.249C160.079 166.566 159.869 166.777 159.552 166.777H152.115C151.799 166.777 151.588 166.566 151.588 166.249V158.813C151.588 158.496 151.799 158.285 152.115 158.285ZM164.722 166.83H172.159C172.475 166.83 172.686 166.619 172.686 166.303V158.866C172.686 158.55 172.475 158.339 172.159 158.339H164.722C164.406 158.339 164.195 158.55 164.195 158.866V166.303C164.195 166.567 164.406 166.83 164.722 166.83ZM184.763 166.83H177.327C177.01 166.83 176.799 166.567 176.799 166.303V158.866C176.799 158.55 177.01 158.339 177.327 158.339H184.763C185.08 158.339 185.291 158.55 185.291 158.866V166.303C185.291 166.619 185.08 166.83 184.763 166.83ZM189.933 166.83H197.37C197.687 166.83 197.898 166.619 197.898 166.303V158.866C197.898 158.55 197.687 158.339 197.37 158.339H189.933C189.617 158.339 189.406 158.55 189.406 158.866V166.303C189.406 166.567 189.617 166.83 189.933 166.83ZM209.975 166.83H202.538C202.222 166.83 202.011 166.567 202.011 166.303V158.866C202.011 158.55 202.222 158.339 202.538 158.339H209.975C210.291 158.339 210.502 158.55 210.502 158.866V166.303C210.502 166.619 210.291 166.83 209.975 166.83ZM222.633 158.285H215.196C214.88 158.285 214.669 158.496 214.669 158.813V166.249C214.669 166.566 214.88 166.777 215.196 166.777H222.633C222.95 166.777 223.16 166.566 223.16 166.249V158.813C223.16 158.549 222.897 158.285 222.633 158.285ZM227.801 158.285H235.238C235.501 158.285 235.765 158.549 235.765 158.813V166.249C235.765 166.566 235.554 166.777 235.238 166.777H227.801C227.485 166.777 227.274 166.566 227.274 166.249V158.813C227.274 158.496 227.485 158.285 227.801 158.285ZM247.844 158.285H240.408C240.091 158.285 239.88 158.496 239.88 158.813V166.249C239.88 166.566 240.091 166.777 240.408 166.777H247.844C248.161 166.777 248.372 166.566 248.372 166.249V158.813C248.372 158.549 248.108 158.285 247.844 158.285ZM253.012 158.285H260.449C260.713 158.285 260.977 158.549 260.977 158.813V166.249C260.977 166.566 260.766 166.777 260.449 166.777H253.012C252.696 166.777 252.485 166.566 252.485 166.249V158.813C252.485 158.496 252.696 158.285 253.012 158.285ZM146.947 171.05H139.511C139.194 171.05 138.983 171.261 138.983 171.577V179.014C138.983 179.33 139.194 179.541 139.511 179.541H146.947C147.264 179.541 147.475 179.33 147.475 179.014V171.577C147.475 171.313 147.211 171.05 146.947 171.05ZM152.115 171.05H159.552C159.816 171.05 160.079 171.313 160.079 171.577V179.014C160.079 179.33 159.869 179.541 159.552 179.541H152.115C151.799 179.541 151.588 179.33 151.588 179.014V171.577C151.588 171.261 151.799 171.05 152.115 171.05ZM210.238 171.05H164.668C164.352 171.05 164.141 171.261 164.141 171.577V179.014C164.141 179.33 164.352 179.541 164.668 179.541H210.238C210.555 179.541 210.766 179.33 210.766 179.014V171.577C210.766 171.313 210.555 171.05 210.238 171.05ZM215.196 171.05H222.633C222.897 171.05 223.16 171.313 223.16 171.577V179.014C223.16 179.33 222.95 179.541 222.633 179.541H215.196C214.88 179.541 214.669 179.33 214.669 179.014V171.577C214.669 171.261 214.88 171.05 215.196 171.05ZM235.238 171.05H227.801C227.485 171.05 227.274 171.261 227.274 171.577V179.014C227.274 179.33 227.485 179.541 227.801 179.541H235.238C235.554 179.541 235.765 179.33 235.765 179.014V171.577C235.765 171.313 235.501 171.05 235.238 171.05ZM240.408 171.05H247.844C248.108 171.05 248.372 171.313 248.372 171.577V179.014C248.372 179.33 248.161 179.541 247.844 179.541H240.408C240.091 179.541 239.88 179.33 239.88 179.014V171.577C239.88 171.261 240.091 171.05 240.408 171.05ZM31.2831 141.619H78.8042V164.931H31.2831V141.619ZM58.4982 166.514H31.2831V189.826H58.4982V166.514ZM31.2831 204.962H47.8443V214.773H31.2831V204.962ZM93.8872 204.962H67.9907V214.773H93.8872V204.962ZM31.2831 191.461H78.8042V203.117H31.2831V191.461ZM77.9602 269.309H32.1797C31.7051 269.309 31.2831 268.94 31.2831 268.412V261.186C31.2831 260.712 31.6523 260.29 32.1797 260.29H77.9602C78.4352 260.29 78.8572 260.659 78.8572 261.186V268.412C78.8042 268.94 78.4352 269.309 77.9602 269.309ZM376.746 233.655L377.063 229.172L319.943 229.066C319.521 229.066 319.151 228.908 318.888 228.644L318.466 205.543L318.413 227.537C318.413 227.938 318.604 228.34 318.849 228.605C318.558 228.297 318.413 227.941 318.413 227.537L318.466 205.543V205.437L318.624 124.161V122.842C318.624 121.998 319.31 121.313 320.154 121.313L359.236 121.418L319.099 118.412C318.255 118.359 317.464 118.992 317.411 119.889L312.084 190.775L309.236 228.591C309.183 229.435 309.816 230.226 310.713 230.279L312.084 230.385L318.94 230.912L375.059 235.131C375.902 235.184 376.694 234.551 376.746 233.655ZM383.604 142.727L384.764 127.379V127.363L384.921 125.005C384.974 124.477 384.763 124.055 384.447 123.686C384.604 123.948 384.709 124.21 384.71 124.523C384.698 124.233 384.596 123.986 384.448 123.739C384.237 123.528 383.973 123.37 383.657 123.317L383.604 142.727ZM322.791 129.013H342.781V131.281H322.791V129.013ZM379.753 221.208H375.27V223.476H379.753V221.208ZM358.972 174.847H359.025C359.13 174.847 359.236 174.741 359.288 174.636C359.288 174.477 359.236 174.372 359.077 174.319C356.546 173.739 349.478 173.897 346.683 174.319C346.525 174.372 346.472 174.477 346.472 174.636C346.525 174.794 346.63 174.847 346.788 174.847C349.478 174.477 356.546 174.319 358.972 174.847ZM360.713 146.524C358.181 144.837 349.795 146.313 348.477 146.735H348.424C347.422 147.104 346.842 147.474 346.683 147.843C346.683 147.869 346.67 147.909 346.657 147.948C346.644 147.988 346.631 148.027 346.631 148.054C346.683 148.476 347.211 148.634 347.633 148.739C349.057 149.003 350.639 148.845 352.169 148.634C352.481 148.606 352.792 148.562 353.096 148.52C353.357 148.483 353.612 148.447 353.856 148.423C355.439 148.318 357.917 148.687 359.342 148.95C360.08 149.056 360.449 149.109 360.66 149.109C361.029 149.109 361.873 148.898 362.031 148.318C362.242 147.896 361.768 147.263 360.713 146.524ZM361.557 148.265C361.504 148.529 360.977 148.687 360.66 148.687C360.502 148.687 360.027 148.634 359.447 148.529C359.296 148.504 359.136 148.478 358.967 148.451C357.664 148.238 355.891 147.948 354.489 147.948H353.804C353.223 148.001 352.696 148.054 352.063 148.159C350.586 148.37 349.057 148.529 347.738 148.265C347.263 148.159 347.158 148.054 347.158 148.054C347.158 148.001 347.211 147.948 347.316 147.896C347.527 147.737 347.896 147.526 348.582 147.263C348.951 147.157 349.795 146.946 350.955 146.735C353.751 146.261 358.076 145.891 360.027 146.735C360.106 146.762 360.172 146.801 360.238 146.841C360.304 146.88 360.37 146.92 360.449 146.946C360.476 146.973 360.502 146.986 360.528 146.999C360.555 147.012 360.581 147.025 360.607 147.052C361.609 147.79 361.609 148.159 361.557 148.265ZM356.704 210.185C358.234 210.185 359.288 209.816 359.816 209.394C359.974 209.235 360.132 209.077 360.185 208.919C360.238 208.813 360.238 208.708 360.238 208.602C360.228 208.563 360.218 208.52 360.208 208.474C360.162 208.274 360.103 208.016 359.974 207.759C359.763 207.495 359.447 207.231 358.919 207.073C356.968 206.44 353.381 207.231 352.801 207.759L352.748 207.811C352.643 207.917 352.643 208.075 352.696 208.181C353.065 208.866 356.388 209.077 357.864 208.602C357.97 208.55 358.075 208.444 358.023 208.286C357.97 208.181 357.864 208.075 357.706 208.128C356.44 208.55 354.067 208.339 353.381 208.075C353.395 208.072 353.408 208.068 353.423 208.064L353.449 208.057L353.475 208.05L353.496 208.044C353.592 208.017 353.702 207.984 353.824 207.947L353.826 207.946H353.827C353.964 207.904 354.116 207.858 354.278 207.811C355.596 207.495 357.706 207.231 358.919 207.706C359.025 207.706 359.13 207.759 359.183 207.811C359.552 208.022 359.763 208.286 359.763 208.655C359.763 208.708 359.763 208.866 359.605 208.972L359.552 209.024C358.866 209.552 356.757 210.185 353.065 209.13C352.959 209.077 352.801 209.13 352.748 209.288C352.696 209.446 352.748 209.552 352.907 209.605C354.383 210.027 355.649 210.185 356.704 210.185ZM88.4552 35.0259C89.1837 35.0259 89.7737 34.4356 89.7737 33.7073C89.7737 32.9791 89.1837 32.3888 88.4552 32.3888C87.7272 32.3888 87.1367 32.9791 87.1367 33.7073C87.1367 34.4356 87.7272 35.0259 88.4552 35.0259ZM162.823 68.992H183.182C184.87 68.992 186.294 67.568 186.294 65.88C186.294 64.1395 184.87 62.7685 183.182 62.7685H162.823C161.083 62.7685 159.712 64.1925 159.712 65.88C159.712 67.6205 161.136 68.992 162.823 68.992ZM288.476 27.9262V31.7237H254.351V27.9262H288.476ZM288.457 40.6714V36.874H254.333V40.6714H288.457ZM288.439 45.8217V49.6191H254.314V45.8217H288.439ZM248.371 244.15V248.475C248.371 249.425 247.579 250.163 246.683 250.163H151.588V242.357H246.683C247.579 242.41 248.371 243.201 248.371 244.15ZM243.572 254.805C243.836 254.594 243.941 254.278 243.941 253.961C243.941 253.487 243.625 253.012 243.203 252.854C243.097 252.801 242.939 252.748 242.781 252.748H213.509C213.192 252.748 212.876 252.906 212.665 253.117C212.401 253.328 212.296 253.645 212.296 253.961C212.296 254.647 212.823 255.174 213.456 255.174H242.728C243.044 255.174 243.361 255.016 243.572 254.805ZM204.014 209.921C204.014 212.611 201.852 214.773 199.162 214.773C196.472 214.773 194.309 212.611 194.309 209.921C194.309 207.231 196.472 205.069 199.162 205.069C201.852 205.069 204.014 207.231 204.014 209.921ZM322.791 264.773L324.584 262.189L319.626 258.655L317.042 256.862L312.031 253.276L310.238 255.86L315.249 259.394L317.78 261.24L322.791 264.773ZM11.168 208.003H14.2798V192.603H11.168V208.003ZM379.012 100.037H375.9V84.6355H379.012V100.037Z" fill="#8FE4FF"/>
<path opacity="0.11" d="M384.184 70.68H351.8C347.686 70.68 344.363 67.357 344.363 63.243V30.8591C344.363 26.7452 347.686 23.4224 351.8 23.4224H384.184C388.298 23.4224 391.621 26.7452 391.621 30.8591V63.243C391.621 67.304 388.298 70.68 384.184 70.68Z" fill="#020202"/>
<path opacity="0.11" d="M288.247 236.345H110.979C107.92 236.345 105.441 233.866 105.441 230.807V129.488C105.441 126.429 107.92 123.95 110.979 123.95H288.247C291.306 123.95 293.785 126.429 293.785 129.488V230.807C293.838 233.866 291.359 236.345 288.247 236.345Z" fill="#020202"/>
<path fill-rule="evenodd" clip-rule="evenodd" d="M288.457 36.8718C296.613 36.8718 303.225 30.26 303.225 22.1039C303.225 13.9477 296.613 7.33594 288.457 7.33594C280.301 7.33594 273.689 13.9477 273.689 22.1039C273.689 30.26 280.301 36.8718 288.457 36.8718ZM383.394 69.941H351.01C346.896 69.941 343.573 66.6185 343.573 62.5045V30.1205C343.573 26.0066 346.896 22.6838 351.01 22.6838H383.394C387.508 22.6838 390.831 26.0066 390.831 30.1205V62.5045C390.831 66.5655 387.508 69.941 383.394 69.941ZM287.349 122.262H109.607C106.6 122.262 104.122 124.688 104.122 127.747V229.013C104.122 232.02 106.548 234.498 109.607 234.498H287.349C290.356 234.498 292.835 232.072 292.835 229.013V127.747C292.835 124.688 290.409 122.262 287.349 122.262ZM202.012 146.049C202.012 145.733 202.276 145.522 202.539 145.522H210.029C210.292 145.522 210.556 145.733 210.556 146.049V153.486C210.556 153.802 210.292 154.013 210.029 154.013H202.539C202.276 154.013 202.012 153.802 202.012 153.486V146.049ZM202.012 158.813C202.012 158.496 202.276 158.285 202.539 158.285H210.029C210.292 158.285 210.556 158.496 210.556 158.813V166.249C210.556 166.566 210.292 166.777 210.029 166.777H202.539C202.276 166.777 202.012 166.566 202.012 166.249V158.813ZM189.406 146.049C189.406 145.733 189.67 145.522 189.934 145.522H197.371C197.687 145.522 197.898 145.733 197.898 146.049V153.486C197.898 153.802 197.687 154.013 197.371 154.013H189.934C189.67 154.013 189.406 153.802 189.406 153.486V146.049ZM189.406 158.813C189.406 158.496 189.67 158.285 189.934 158.285H197.371C197.687 158.285 197.898 158.496 197.898 158.813V166.249C197.898 166.566 197.687 166.777 197.371 166.777H189.934C189.67 166.777 189.406 166.566 189.406 166.249V158.813ZM176.801 146.049C176.801 145.733 177.065 145.522 177.328 145.522H184.818C185.081 145.522 185.345 145.733 185.345 146.049V153.486C185.345 153.802 185.081 154.013 184.818 154.013H177.328C177.065 154.013 176.801 153.802 176.801 153.486V146.049ZM176.801 158.813C176.801 158.496 177.065 158.285 177.328 158.285H184.818C185.081 158.285 185.345 158.496 185.345 158.813V166.249C185.345 166.566 185.081 166.777 184.818 166.777H177.328C177.065 166.777 176.801 166.566 176.801 166.249V158.813ZM164.195 146.049C164.195 145.733 164.406 145.522 164.723 145.522H172.212C172.476 145.522 172.74 145.733 172.74 146.049V153.486C172.74 153.802 172.476 154.013 172.212 154.013H164.723C164.406 154.013 164.195 153.802 164.195 153.486V146.049ZM164.195 158.813C164.195 158.496 164.406 158.285 164.723 158.285H172.212C172.476 158.285 172.74 158.496 172.74 158.813V166.249C172.74 166.566 172.476 166.777 172.212 166.777H164.723C164.406 166.777 164.195 166.566 164.195 166.249V158.813ZM147.476 179.066C147.476 179.382 147.265 179.593 146.949 179.593H139.459C139.195 179.593 138.932 179.382 138.932 179.066V171.629C138.932 171.313 139.195 171.102 139.459 171.102H146.949C147.265 171.102 147.476 171.313 147.476 171.629V179.066ZM147.476 153.538C147.476 153.855 147.265 154.066 146.949 154.066H139.459C139.195 154.066 138.932 153.855 138.932 153.538V146.049C138.932 145.733 139.195 145.522 139.459 145.522H146.949C147.265 145.522 147.476 145.733 147.476 146.049V153.538ZM160.081 179.066C160.081 179.382 159.818 179.593 159.554 179.593H152.117C151.801 179.593 151.59 179.382 151.59 179.066V171.629C151.59 171.313 151.801 171.102 152.117 171.102H159.554C159.818 171.102 160.081 171.313 160.081 171.629V179.066ZM160.081 166.302C160.081 166.619 159.818 166.83 159.554 166.83H152.117C151.801 166.83 151.59 166.619 151.59 166.302V158.865C151.59 158.549 151.801 158.338 152.117 158.338H159.554C159.818 158.338 160.081 158.549 160.081 158.865V166.302ZM160.081 153.538C160.081 153.855 159.818 154.066 159.554 154.066H152.117C151.801 154.066 151.59 153.855 151.59 153.538V146.049C151.59 145.733 151.801 145.522 152.117 145.522H159.554C159.818 145.522 160.081 145.733 160.081 146.049V153.538ZM199.164 214.773C196.474 214.773 194.311 212.61 194.311 209.92C194.311 207.23 196.474 205.068 199.164 205.068C201.854 205.068 204.016 207.23 204.016 209.92C204.016 212.61 201.854 214.773 199.164 214.773ZM210.767 179.066C210.767 179.382 210.503 179.593 210.24 179.593H164.67C164.354 179.593 164.143 179.382 164.143 179.066V171.629C164.143 171.313 164.354 171.102 164.67 171.102H210.24C210.503 171.102 210.767 171.313 210.767 171.629V179.066ZM223.162 179.066C223.162 179.382 222.951 179.593 222.634 179.593H215.198C214.934 179.593 214.67 179.382 214.67 179.066V171.629C214.67 171.313 214.934 171.102 215.198 171.102H222.634C222.951 171.102 223.162 171.313 223.162 171.629V179.066ZM223.162 166.302C223.162 166.619 222.951 166.83 222.634 166.83H215.198C214.934 166.83 214.67 166.619 214.67 166.302V158.865C214.67 158.549 214.934 158.338 215.198 158.338H222.634C222.951 158.338 223.162 158.549 223.162 158.865V166.302ZM223.162 153.538C223.162 153.855 222.951 154.066 222.634 154.066H215.198C214.934 154.066 214.67 153.855 214.67 153.538V146.049C214.67 145.733 214.934 145.522 215.198 145.522H222.634C222.951 145.522 223.162 145.733 223.162 146.049V153.538ZM235.767 179.066C235.767 179.382 235.556 179.593 235.24 179.593H227.75C227.487 179.593 227.223 179.382 227.223 179.066V171.629C227.223 171.313 227.487 171.102 227.75 171.102H235.24C235.556 171.102 235.767 171.313 235.767 171.629V179.066ZM235.767 166.302C235.767 166.619 235.556 166.83 235.24 166.83H227.75C227.487 166.83 227.223 166.619 227.223 166.302V158.865C227.223 158.549 227.487 158.338 227.75 158.338H235.24C235.556 158.338 235.767 158.549 235.767 158.865V166.302ZM235.767 153.538C235.767 153.855 235.556 154.066 235.24 154.066H227.75C227.487 154.066 227.223 153.855 227.223 153.538V146.049C227.223 145.733 227.487 145.522 227.75 145.522H235.24C235.556 145.522 235.767 145.733 235.767 146.049V153.538ZM248.373 179.066C248.373 179.382 248.162 179.593 247.845 179.593H240.408C240.092 179.593 239.881 179.382 239.881 179.066V171.629C239.881 171.313 240.092 171.102 240.408 171.102H247.845C248.162 171.102 248.373 171.313 248.373 171.629V179.066ZM248.373 166.302C248.373 166.619 248.162 166.83 247.845 166.83H240.408C240.092 166.83 239.881 166.619 239.881 166.302V158.865C239.881 158.549 240.092 158.338 240.408 158.338H247.845C248.162 158.338 248.373 158.549 248.373 158.865V166.302ZM248.373 153.538C248.373 153.855 248.162 154.066 247.845 154.066H240.408C240.092 154.066 239.881 153.855 239.881 153.538V146.049C239.881 145.733 240.092 145.522 240.408 145.522H247.845C248.162 145.522 248.373 145.733 248.373 146.049V153.538ZM260.978 166.302C260.978 166.619 260.714 166.83 260.451 166.83H252.961C252.645 166.83 252.434 166.619 252.434 166.302V158.865C252.434 158.549 252.645 158.338 252.961 158.338H260.451C260.714 158.338 260.978 158.549 260.978 158.865V166.302ZM260.978 153.538C260.978 153.855 260.714 154.066 260.451 154.066H252.961C252.645 154.066 252.434 153.855 252.434 153.538V146.049C252.434 145.733 252.645 145.522 252.961 145.522H260.451C260.714 145.522 260.978 145.733 260.978 146.049V153.538ZM331.391 82.6525H331.497C331.497 79.5405 328.912 76.956 325.748 76.956H71.1592C69.6297 76.956 68.1527 77.589 67.1507 78.644C66.0957 79.646 65.4627 81.07 65.4627 82.6525H65.5682C65.8322 82.125 66.4122 81.8085 67.4672 81.8085H329.545C330.547 81.8085 331.18 82.125 331.391 82.6525ZM55.2837 244.15C57.9632 244.15 60.1357 241.977 60.1357 239.298C60.1357 236.618 57.9632 234.445 55.2837 234.445C52.6037 234.445 50.4312 236.618 50.4312 239.298C50.4312 241.977 52.6037 244.15 55.2837 244.15ZM314.197 117.093H387.931C389.144 117.093 390.094 118.042 390.094 119.255V237.452C390.094 238.665 389.144 239.614 387.931 239.614H314.197C312.984 239.614 312.035 238.665 312.035 237.452V230.384L318.891 230.912L318.944 234.814C318.997 235.658 319.682 236.344 320.526 236.344L385.136 235.184C385.98 235.184 386.666 234.445 386.666 233.601L384.714 127.378L384.661 124.53C384.661 124.213 384.556 123.949 384.398 123.686C384.081 123.264 383.606 123 383.079 123H383.026L380.442 123.053L318.575 124.16V122.842C318.575 121.998 319.26 121.312 320.104 121.312L359.187 121.418L319.049 118.411C318.206 118.359 317.414 118.992 317.362 119.888L312.035 190.774V119.255C312.035 118.042 312.984 117.093 314.197 117.093ZM360.557 140.352H326.854V141.513H360.557V140.352ZM326.854 143.57H360.557V144.731H326.854V143.57ZM348.479 146.788H348.426C347.424 147.157 346.844 147.526 346.685 147.895H326.854V146.735H348.479V146.788ZM360.557 147.948V147.104C360.557 147.051 360.504 146.998 360.452 146.998C360.373 146.972 360.307 146.932 360.241 146.893C360.175 146.853 360.109 146.814 360.03 146.787H350.958C349.798 146.998 348.954 147.209 348.585 147.315C347.899 147.579 347.53 147.79 347.319 147.948H360.557ZM360.557 150.005H326.854V151.165H360.557V150.005ZM326.854 153.169H360.557V154.329H326.854V153.169ZM360.557 156.386H326.854V157.546H360.557V156.386ZM326.854 159.603H360.557V160.764H326.854V159.603ZM360.557 162.821H326.854V163.982H360.557V162.821ZM326.854 166.038H360.557V167.199H326.854V166.038ZM360.557 169.256H326.854V170.416H360.557V169.256ZM326.854 172.473H360.557V173.633H326.854V172.473ZM360.557 175.69H326.854V176.85H360.557V175.69ZM326.854 178.908H360.557V180.068H326.854V178.908ZM360.557 182.125H326.854V183.285H360.557V182.125ZM326.854 185.342H360.557V186.502H326.854V185.342ZM360.557 188.507H326.854V189.667H360.557V188.507ZM326.854 191.724H360.557V192.884H326.854V191.724ZM360.557 194.941H326.854V196.101H360.557V194.941ZM326.854 198.159H360.557V199.319H326.854V198.159ZM360.557 201.376H326.854V202.536H360.557V201.376ZM326.854 204.593H360.557V205.753H326.854V204.593ZM359.714 208.654C359.714 208.707 359.661 208.812 359.555 208.971H326.908V207.81H352.804L352.752 207.863C352.646 207.968 352.646 208.127 352.699 208.232C353.068 208.918 356.391 209.129 357.868 208.654C358.026 208.601 358.079 208.443 358.026 208.338C357.973 208.179 357.815 208.127 357.709 208.179C356.444 208.601 354.07 208.39 353.384 208.127C353.525 208.056 353.713 208.009 353.931 207.955C354.041 207.927 354.158 207.898 354.281 207.863H359.186C359.503 208.021 359.661 208.285 359.714 208.654ZM360.557 208.971V207.863H359.872C360.083 208.127 360.188 208.39 360.188 208.654C360.188 208.76 360.188 208.865 360.136 208.971H360.557ZM360.557 211.027H326.854V212.188H360.557V211.027ZM363.352 140.352H379.438V156.439H363.352V140.352ZM379.438 158.443H363.352V160.764H379.438V158.443ZM61.9292 65.036L64.1442 30.3315L59.3447 64.7725L53.7537 64.034L48.3742 63.243L27.3826 60.342L27.2244 62.821L52.8572 64.456H52.9102L61.9292 65.036ZM34.3962 36.0806C33.816 36.2916 33.3413 36.6608 32.9194 37.0827C33.0628 36.9871 33.2062 36.8867 33.3482 36.7872L33.3487 36.7869L33.349 36.7867L33.3491 36.7866L33.3492 36.7865L33.3494 36.7864L33.3495 36.7863C33.6769 36.557 33.9966 36.3331 34.2907 36.1861C34.5544 36.1333 34.8181 36.0806 35.0291 36.2388C35.2401 36.3443 35.3455 36.5553 35.451 36.819C35.5591 37.1791 35.6179 37.5639 35.678 37.9564L35.678 37.9566C35.7059 38.1389 35.734 38.3228 35.7675 38.5067V38.5068C35.8202 38.8232 35.873 39.1397 35.9785 39.4561C35.9785 39.5333 36.0067 39.5823 36.0426 39.6444V39.6444C36.0557 39.6671 36.0698 39.6916 36.0839 39.7198C36.1213 39.7572 36.1521 39.7946 36.1809 39.8296C36.2334 39.8934 36.2795 39.9495 36.3477 39.9835C36.6114 40.1418 36.9278 40.1418 37.1388 40.0363C37.5016 39.9002 37.7085 39.6861 37.8934 39.4947C37.9236 39.4635 37.9531 39.4329 37.9827 39.4034C38.1936 39.1924 38.4046 38.9287 38.5628 38.665L39.0375 37.8738L39.0903 37.7684H39.143H39.2485C39.2485 37.7684 39.3012 37.7684 39.3012 37.8211L39.4067 38.1903C39.4594 38.3484 39.5121 38.4933 39.5648 38.6383L39.565 38.6386L39.5651 38.6389C39.6178 38.7839 39.6705 38.9288 39.7232 39.0869C39.8814 39.4034 40.0396 39.6671 40.2506 39.9835C40.4616 40.2473 40.8835 40.5637 41.4109 40.5637C41.9384 40.511 42.2548 40.2473 42.4658 40.0363C42.5867 39.9396 42.6854 39.8539 42.7772 39.7743L42.7773 39.7742L42.7774 39.7742L42.7776 39.7739L42.7777 39.7739C42.886 39.68 42.9846 39.5944 43.0987 39.5089C43.2569 39.3506 43.4152 39.2979 43.5734 39.3506C43.7316 39.3506 43.8899 39.4561 44.0481 39.6671C44.2774 39.9346 44.4513 40.3128 44.63 40.7015C44.6979 40.8493 44.7666 40.9986 44.8392 41.1439C44.9447 41.4076 45.1029 41.724 45.3139 41.9878C45.3388 42.0127 45.3637 42.0405 45.39 42.0699C45.4751 42.165 45.5747 42.2764 45.7358 42.357C45.8413 42.4097 45.9468 42.4624 46.0523 42.4624C46.2105 42.5152 46.316 42.5152 46.4215 42.5152C46.8962 42.4624 47.1599 42.146 47.3709 41.8823C47.5818 41.6713 47.74 41.4076 47.8983 41.1439V41.1439C48.2147 40.6692 48.5839 40.1418 49.0059 40.1418C49.2169 40.1418 49.4806 40.2473 49.6915 40.4055C49.9025 40.5637 50.1137 40.8274 50.2717 41.0384C50.5882 41.5131 50.9047 42.0405 51.1682 42.5679H51.2212V42.5152C51.0102 41.9878 50.7462 41.4603 50.4297 40.9329C50.2717 40.7219 50.0607 40.4582 49.8498 40.2473C49.6388 40.0363 49.3751 39.8781 49.0586 39.8781C48.7422 39.8781 48.4785 40.0363 48.2675 40.2473L48.2674 40.2473C48.0565 40.4583 47.8455 40.6692 47.6873 40.9329C47.5291 41.1966 47.3709 41.4603 47.1599 41.6713C47.0017 41.935 46.7379 42.146 46.4742 42.146C46.2105 42.146 45.9468 41.935 45.7886 41.724C45.6304 41.4603 45.4721 41.1966 45.3666 40.9329C45.2951 40.7898 45.2274 40.6427 45.1594 40.495C44.9768 40.0983 44.7918 39.6965 44.5228 39.3506C44.3645 39.0869 44.1008 38.8759 43.7844 38.8232C43.4679 38.7177 43.1515 38.8759 42.8877 39.0342C42.624 39.1924 42.4131 39.4034 42.2021 39.6143L42.1649 39.6424C41.9605 39.7963 41.7121 39.9835 41.4637 39.9835C41.1472 40.0363 40.8835 39.8253 40.7253 39.6143C40.5671 39.4034 40.4088 39.1397 40.3034 38.8759C40.2023 38.7076 40.1443 38.5177 40.0881 38.3338V38.3338H40.0881C40.0563 38.2296 40.025 38.1274 39.9869 38.0321C39.9869 37.9069 39.9539 37.8147 39.914 37.7033L39.9139 37.7032L39.8993 37.662C39.8934 37.6453 39.8874 37.628 39.8814 37.6101C39.8287 37.4519 39.7232 37.3464 39.565 37.2937C39.3012 37.1354 38.8793 37.2937 38.7738 37.6101C38.6156 37.8211 38.4574 38.0848 38.2991 38.3485V38.3486C38.1409 38.6123 37.9827 38.876 37.7717 39.0869C37.6135 39.2979 37.4025 39.5616 37.1388 39.6671C37.0333 39.7198 36.8751 39.7726 36.7696 39.6671C36.6114 39.6143 36.5586 39.5089 36.5059 39.3506C36.4004 39.0869 36.3477 38.8232 36.2949 38.5067C36.1894 37.9266 36.0839 37.3464 35.873 36.7662C35.7675 36.5025 35.5565 36.2388 35.2928 36.0806C35.0291 35.9224 34.6599 35.9751 34.3962 36.0806ZM31.073 42.5681C31.4949 42.1462 31.9696 41.777 32.5498 41.566C32.8135 41.4605 33.1827 41.4078 33.4464 41.566C33.7101 41.7243 33.9211 41.988 34.0266 42.2517C34.2375 42.8318 34.343 43.412 34.4485 43.9922C34.5012 44.3086 34.554 44.5724 34.6595 44.8361C34.7122 44.9943 34.765 45.0998 34.9232 45.1525C35.0287 45.258 35.1869 45.2053 35.2924 45.1525C35.5561 45.047 35.7671 44.7833 35.9253 44.5724C36.1363 44.3614 36.2945 44.0977 36.4527 43.834C36.611 43.5702 36.7692 43.3065 36.9274 43.0956C37.0329 42.7791 37.4548 42.6209 37.7185 42.7791C37.8768 42.8318 37.9823 42.9373 38.035 43.0956C38.046 43.1285 38.057 43.1591 38.0675 43.1885L38.0676 43.1887C38.1075 43.3001 38.1405 43.3923 38.1405 43.5175C38.1786 43.6128 38.2099 43.7151 38.2417 43.8192C38.2979 44.0031 38.3559 44.193 38.4569 44.3614C38.5624 44.6251 38.7207 44.8888 38.8789 45.0998C39.0371 45.3108 39.3008 45.5217 39.6173 45.469C39.8657 45.469 40.1141 45.2818 40.3184 45.1278L40.3557 45.0998C40.5667 44.8888 40.7776 44.6778 41.0413 44.5196C41.305 44.3614 41.6215 44.2032 41.938 44.3086C42.2544 44.3614 42.5181 44.5724 42.6764 44.8361C42.9454 45.1819 43.1304 45.5838 43.313 45.9805C43.381 46.1282 43.4487 46.2752 43.5202 46.4183C43.6257 46.6821 43.784 46.9458 43.9422 47.2095C44.1004 47.4205 44.3641 47.6314 44.6278 47.6314C44.8915 47.6314 45.1553 47.4205 45.3135 47.1567C45.5244 46.9458 45.6827 46.6821 45.8409 46.4184L45.8409 46.4183C45.9991 46.1547 46.2101 45.9437 46.421 45.7327L46.4211 45.7327C46.6321 45.5217 46.8958 45.3635 47.2122 45.3635C47.5287 45.3635 47.7924 45.5217 48.0034 45.7327C48.2143 45.9437 48.4253 46.2074 48.5835 46.4183C48.9 46.9458 49.1637 47.4732 49.3747 48.0006V48.0534H49.3219C49.0582 47.5259 48.7418 46.9985 48.4253 46.5238C48.2671 46.3129 48.0561 46.0492 47.8451 45.8909C47.6342 45.7327 47.3705 45.6272 47.1595 45.6272C46.7375 45.6272 46.3683 46.1546 46.0519 46.6293V46.6294C45.8936 46.8931 45.7354 47.1568 45.5245 47.3677C45.3135 47.6314 45.0498 47.9479 44.5751 48.0006C44.4696 48.0006 44.3641 48.0006 44.2059 47.9479C44.1004 47.9479 43.9949 47.8951 43.8894 47.8424C43.7283 47.7618 43.6287 47.6505 43.5436 47.5553C43.5173 47.5259 43.4924 47.4981 43.4675 47.4732C43.2565 47.2095 43.0983 46.893 42.9928 46.6293C42.9202 46.484 42.8515 46.3347 42.7836 46.1869C42.6049 45.7982 42.431 45.42 42.2017 45.1525C42.0434 44.9416 41.8852 44.8361 41.727 44.8361C41.5688 44.7833 41.4105 44.8361 41.2523 44.9943C41.1381 45.08 41.0393 45.1656 40.9309 45.2597C40.8391 45.3393 40.7403 45.425 40.6194 45.5217C40.4084 45.7327 40.092 45.9964 39.5645 46.0492C39.0371 46.1019 38.6152 45.7327 38.4042 45.469C38.1932 45.1525 38.035 44.8888 37.8768 44.5724C37.824 44.4141 37.7713 44.2691 37.7186 44.1241C37.6658 43.979 37.6131 43.834 37.5603 43.6757L37.4548 43.3065C37.4548 43.2538 37.4021 43.2538 37.4021 43.2538H37.2966H37.2439L37.1911 43.3593L36.7164 44.1504C36.5582 44.4141 36.3472 44.6778 36.1363 44.8888C36.1067 44.9184 36.0772 44.9489 36.047 44.9801C35.8621 45.1716 35.6552 45.3857 35.2924 45.5217C35.0814 45.6272 34.765 45.6272 34.5012 45.469C34.4331 45.4349 34.387 45.3789 34.3345 45.315C34.3057 45.28 34.2749 45.2426 34.2375 45.2053C34.2234 45.177 34.2093 45.1526 34.1962 45.1299V45.1298C34.1603 45.0677 34.132 45.0188 34.132 44.9416C34.0266 44.6251 33.9738 44.3087 33.9211 43.9922V43.9922C33.8876 43.8082 33.8595 43.6243 33.8316 43.442V43.4419C33.7715 43.0493 33.7127 42.6646 33.6046 42.3044C33.4991 42.0407 33.3937 41.8297 33.1827 41.7243C32.9717 41.566 32.708 41.6188 32.4443 41.6715C32.1674 41.8297 31.8015 42.077 31.4356 42.3242C31.3136 42.4066 31.1917 42.489 31.073 42.5681ZM30.7567 48.0521L30.7565 48.0523C30.7039 48.1058 30.6515 48.159 30.5991 48.2114C31.0738 47.8422 31.5485 47.473 31.8649 47.3148C32.1287 47.2093 32.4451 47.1565 32.7088 47.3148C32.9725 47.4202 33.1308 47.684 33.2362 47.9477C33.4472 48.4118 33.5232 48.8759 33.5991 49.3401V49.3402L33.5992 49.3403V49.3404V49.3405L33.5992 49.3406V49.3407V49.3408L33.5993 49.3409V49.341V49.3411L33.5993 49.3412V49.3413V49.3414L33.5994 49.3415V49.3416V49.3417L33.5994 49.3418C33.6183 49.4573 33.6372 49.5727 33.6582 49.6882C33.7109 50.0045 33.7637 50.321 33.8692 50.585C33.8775 50.6015 33.8859 50.6195 33.8946 50.6385C33.9412 50.739 33.9997 50.865 34.1329 50.954C34.2911 51.0595 34.4493 51.0595 34.6076 51.007C34.819 50.922 34.9966 50.736 35.1675 50.5565C35.2097 50.512 35.2514 50.4685 35.2932 50.4265C35.5042 50.163 35.6624 49.9519 35.8206 49.6882C35.9789 49.4772 36.1371 49.2135 36.2953 48.9498C36.4008 48.6861 36.7173 48.5806 36.981 48.6861C37.0865 48.7388 37.1919 48.8443 37.2447 48.9498C37.2732 49.0069 37.2863 49.0795 37.3007 49.1591C37.3129 49.2266 37.326 49.2992 37.3502 49.3717C37.4029 49.5036 37.4557 49.6486 37.5084 49.7937C37.5611 49.9387 37.6139 50.084 37.6666 50.2155C37.7194 50.3035 37.7663 50.3975 37.8131 50.491C37.9069 50.6785 38.0007 50.866 38.1413 51.007C38.2995 51.2705 38.616 51.4285 38.9325 51.4285C39.2489 51.376 39.5126 51.2175 39.7236 51.007L39.7236 51.0065C39.9346 50.796 40.1456 50.585 40.4092 50.4265C40.6202 50.2685 40.9367 50.163 41.2004 50.2155C41.4641 50.2685 41.7278 50.4795 41.886 50.6905C42.155 51.036 42.34 51.438 42.5227 51.8345C42.5907 51.9825 42.6584 52.1295 42.7299 52.2725C42.8354 52.5365 42.9936 52.8 43.1518 53.0635H43.1519C43.3628 53.2745 43.6265 53.5385 43.943 53.4855C44.2202 53.4855 44.4165 53.2835 44.6027 53.0915L44.6029 53.091H44.6032L44.6034 53.0905L44.6047 53.089C44.6304 53.063 44.6559 53.0365 44.6814 53.011C44.8924 52.7475 45.0506 52.5365 45.2088 52.2725C45.245 52.2275 45.2797 52.1835 45.3133 52.1415C45.4756 51.9365 45.6142 51.7615 45.789 51.587C46 51.376 46.2637 51.2175 46.5801 51.2175C46.8966 51.2175 47.1603 51.376 47.3713 51.587C47.635 51.798 47.7932 52.009 47.9514 52.2725C48.2679 52.7475 48.5316 53.3275 48.7426 53.855H48.7953V53.802C48.6371 53.222 48.4261 52.642 48.1097 52.1145H48.1096C47.9514 51.8505 47.7932 51.587 47.5822 51.376C47.3713 51.165 47.0548 50.954 46.6856 50.9015C46.2637 50.9015 45.8945 51.1125 45.6835 51.323C45.4198 51.587 45.2088 51.798 45.0506 52.0615C44.9481 52.2325 44.8235 52.381 44.7055 52.522H44.7054H44.7054C44.6412 52.5985 44.5789 52.673 44.5232 52.7475C44.3122 52.958 44.1012 53.0635 43.9957 53.0635C43.732 53.1165 43.4156 52.589 43.2046 52.0615C43.1857 52.0145 43.1668 51.967 43.1478 51.919L43.1476 51.918L43.1474 51.9175C42.9539 51.4295 42.7446 50.9015 42.3607 50.374C42.2025 50.0575 41.8333 49.7937 41.4114 49.6882C40.9894 49.5827 40.5147 49.7409 40.251 49.9519C40.0429 50.056 39.8804 50.2055 39.7335 50.341H39.7335C39.657 50.4115 39.5848 50.478 39.5126 50.532C39.3017 50.6905 39.0907 50.796 38.9852 50.796C38.8797 50.796 38.7742 50.743 38.616 50.585C38.4578 50.4265 38.3523 50.2155 38.2468 49.9519C38.1941 49.82 38.1545 49.6882 38.1149 49.5563C38.0754 49.4245 38.0358 49.2926 37.9831 49.1607L37.9303 48.9498C37.893 48.9125 37.8821 48.8752 37.8603 48.8006C37.8512 48.7697 37.8403 48.7324 37.8249 48.6861C37.7721 48.4751 37.5611 48.2641 37.2974 48.1586C37.0865 48.0532 36.8227 48.0532 36.559 48.1586C36.4536 48.2114 36.3481 48.2641 36.2426 48.3696C36.1371 48.4751 36.0316 48.5806 36.0316 48.6333C35.9556 48.8232 35.8523 48.9858 35.7414 49.1604C35.6982 49.2282 35.6539 49.2979 35.6097 49.3717C35.4514 49.6354 35.2932 49.8464 35.135 50.0575C34.9768 50.2685 34.7658 50.4795 34.6076 50.532H34.5021C34.5021 50.532 34.5021 50.4795 34.4493 50.4795C34.4493 50.453 34.4361 50.4265 34.423 50.4C34.4098 50.374 34.3966 50.3475 34.3966 50.321C34.3041 50.136 34.2521 49.87 34.2052 49.6295L34.2051 49.6289L34.2048 49.6274C34.1983 49.5943 34.192 49.5618 34.1856 49.5299L34.1686 49.4358C34.0683 48.8818 33.9605 48.2856 33.7109 47.7367C33.6054 47.473 33.3417 47.1565 33.0253 46.9983C32.7088 46.8401 32.2869 46.9456 32.0232 47.051C31.5151 47.282 31.1284 47.6747 30.7568 48.0521H30.7567ZM84.3967 35.0258C85.1247 35.0258 85.7152 34.4355 85.7152 33.7072C85.7152 32.979 85.1247 32.3887 84.3967 32.3887C83.6682 32.3887 83.0782 32.979 83.0782 33.7072C83.0782 34.4355 83.6682 35.0258 84.3967 35.0258ZM133.131 68.992H153.489C155.177 68.992 156.549 67.568 156.601 65.88C156.601 64.1395 155.177 62.768 153.489 62.768H133.131C131.39 62.768 130.019 64.1925 130.019 65.88C130.019 67.6205 131.443 68.992 133.131 68.992ZM44.2916 101.096V97.299H10.1671V101.096H44.2916ZM44.2731 106.247V110.044H10.1486V106.247H44.2731ZM44.3081 118.992V115.194H10.1836V118.992H44.3081ZM44.2895 124.141V127.939H10.1651V124.141H44.2895ZM44.2998 285.704V281.906H10.1754V285.704H44.2998ZM78.8217 288.866V292.664H10.1506V288.866H78.8217ZM106.443 270.417C106.443 279.277 113.669 286.503 122.53 286.503C123.268 286.503 123.849 285.923 123.849 285.185C123.849 284.446 123.268 283.866 122.53 283.866C115.093 283.866 109.081 277.854 109.081 270.417C109.081 262.98 115.093 256.967 122.53 256.967C123.268 256.967 123.849 256.387 123.849 255.648C123.849 254.91 123.268 254.33 122.53 254.33C113.669 254.33 106.443 261.556 106.443 270.417ZM122.529 292.093C110.557 292.093 100.852 282.388 100.852 270.416C100.852 258.443 110.557 248.738 122.529 248.738C123.268 248.738 123.848 249.318 123.848 250.057C123.848 250.795 123.268 251.375 122.529 251.375C112.033 251.375 103.489 259.92 103.489 270.416C103.489 280.911 112.033 289.456 122.529 289.456C123.268 289.456 123.848 290.036 123.848 290.775C123.848 291.513 123.268 292.093 122.529 292.093ZM138.722 246.312L151.538 242.409V250.215L138.722 246.312ZM257.129 245.522V247.104C257.129 247.737 256.602 248.317 255.916 248.317H248.321V244.309H255.916C256.602 244.309 257.129 244.836 257.129 245.522ZM243.204 252.905V249.688H237.719C237.455 249.688 237.192 249.899 237.192 250.216C237.192 250.532 237.455 250.743 237.719 250.743H242.149V252.8H242.782C242.908 252.8 243 252.833 243.111 252.873L243.147 252.886C243.166 252.892 243.185 252.899 243.204 252.905ZM359.976 286.503H129.438C128.7 286.503 128.119 285.923 128.119 285.185C128.119 284.446 128.7 283.866 129.438 283.866H359.976C360.714 283.866 361.295 284.446 361.295 285.185C361.295 285.923 360.714 286.503 359.976 286.503ZM129.438 292.094H359.976C360.714 292.094 361.295 291.513 361.295 290.775C361.295 290.036 360.714 289.457 359.976 289.457H129.438C128.7 289.457 128.119 290.036 128.119 290.775C128.119 291.513 128.7 292.094 129.438 292.094ZM315.224 259.4L311.684 264.391L314.223 266.19L317.762 261.2L315.224 259.4ZM319.63 258.654L323.163 253.644L320.579 251.85L317.045 256.861L319.63 258.654ZM20.4008 201.852V198.74H5V201.852H20.4008ZM385.149 90.792V93.9035H369.748V90.792H385.149Z" fill="#4382FF"/>
<path d="M65.9883 139.561H44.0999C43.256 139.561 42.5703 138.876 42.5703 138.032V136.028H67.5178V137.979C67.5178 138.876 66.8318 139.561 65.9883 139.561Z" fill="#2E3740"/>
<path opacity="0.11" d="M392.782 44.8888H387.666C386.347 35.6061 378.383 28.4858 368.731 28.4858C358.183 28.4858 349.586 37.0301 349.586 47.6314C349.586 58.2325 358.13 66.777 368.731 66.777C378.699 66.777 386.927 59.1295 387.771 49.3719H392.782C393.995 49.3719 394.997 48.3698 394.997 47.1567C395.05 45.8909 394.048 44.8888 392.782 44.8888Z" fill="#020202"/>
<path d="M82.288 250.479H28.2795C27.5411 250.479 26.9609 249.899 26.9609 249.161V138.138C26.9609 137.399 27.5411 136.819 28.2795 136.819H82.288C83.0265 136.819 83.6065 137.399 83.6065 138.138V249.161C83.6065 249.847 83.0265 250.479 82.288 250.479ZM28.2795 137.347C27.8576 137.347 27.4884 137.716 27.4884 138.138V249.161C27.4884 249.583 27.8576 249.952 28.2795 249.952H82.288C82.71 249.952 83.079 249.583 83.079 249.161V138.138C83.079 137.716 82.71 137.347 82.288 137.347H28.2795Z" fill="#2E3740"/>
<path opacity="0.14" d="M281.231 121.418H115.619C113.984 121.418 111.663 120.522 110.45 119.361L79.2261 90.1415C76.9056 87.9795 76.9056 86.186 79.2786 86.186H317.57C319.944 86.186 319.944 87.9795 317.623 90.1415L286.399 119.361C285.186 120.522 282.866 121.418 281.231 121.418Z" fill="white"/>
<path opacity="0.11" d="M272.583 137.083H129.545C128.702 137.083 128.016 136.397 128.016 135.553V131.65C128.016 130.807 128.702 130.121 129.545 130.121H272.583C273.427 130.121 274.113 130.807 274.113 131.65V135.553C274.06 136.397 273.427 137.083 272.583 137.083Z" fill="#020202"/>
<path d="M124.377 137.083H114.514C113.933 137.083 113.406 136.608 113.406 135.975V131.228C113.406 130.648 113.881 130.121 114.514 130.121H124.377C124.957 130.121 125.484 130.596 125.484 131.228V135.975C125.431 136.608 124.957 137.083 124.377 137.083Z" fill="#2E3740"/>
<path d="M282.813 137.083H277.539C277.064 137.083 276.695 136.714 276.695 136.239V130.965C276.695 130.49 277.064 130.121 277.539 130.121H282.813C283.288 130.121 283.657 130.49 283.657 130.965V136.239C283.604 136.714 283.235 137.083 282.813 137.083Z" fill="#2E3740"/>
<path opacity="0.11" d="M128.912 154.066H114.883C114.566 154.066 114.355 153.855 114.355 153.538V146.049C114.355 145.732 114.566 145.521 114.883 145.521H128.912C129.229 145.521 129.44 145.732 129.44 146.049V153.485C129.44 153.802 129.176 154.066 128.912 154.066Z" fill="#020202"/>
<path opacity="0.11" d="M273.741 175.321H266.199V179.593H273.741V175.321Z" fill="#020202"/>
<path opacity="0.11" d="M273.741 170.205H266.199V174.477H273.741V170.205Z" fill="#020202"/>
<path opacity="0.11" d="M263.617 175.321H256.074V179.593H263.617V175.321Z" fill="#020202"/>
<path opacity="0.11" d="M283.921 175.321H276.379V179.593H283.921V175.321Z" fill="#020202"/>
<path opacity="0.11" d="M128.912 179.118H114.883C114.566 179.118 114.355 178.907 114.355 178.591V171.154C114.355 170.838 114.566 170.627 114.883 170.627H128.912C129.229 170.627 129.44 170.838 129.44 171.154V178.591C129.44 178.855 129.176 179.118 128.912 179.118Z" fill="#020202"/>
<path opacity="0.11" d="M283.393 154.066H269.363C269.047 154.066 268.836 153.855 268.836 153.538V146.049C268.836 145.732 269.047 145.521 269.363 145.521H283.393C283.709 145.521 283.92 145.732 283.92 146.049V153.485C283.92 153.802 283.656 154.066 283.393 154.066Z" fill="#020202"/>
<path opacity="0.11" d="M283.393 166.829H269.363C269.047 166.829 268.836 166.618 268.836 166.302V158.865C268.836 158.549 269.047 158.338 269.363 158.338H283.393C283.709 158.338 283.92 158.549 283.92 158.865V166.302C283.92 166.565 283.656 166.829 283.393 166.829Z" fill="#020202"/>
<path opacity="0.11" d="M146.368 166.882H114.828C114.512 166.882 114.301 166.671 114.301 166.355V158.918C114.301 158.602 114.512 158.391 114.828 158.391H146.368C146.685 158.391 146.896 158.602 146.896 158.918V166.355C146.896 166.619 146.685 166.882 146.368 166.882Z" fill="#020202"/>
<path d="M82.288 272.895H28.2795C27.5411 272.895 26.9609 272.315 26.9609 271.577V257.916C26.9609 257.178 27.5411 256.598 28.2795 256.598H82.288C83.0265 256.598 83.6065 257.178 83.6065 257.916V271.577C83.6065 272.315 83.0265 272.895 82.288 272.895ZM28.2795 257.125C27.8576 257.125 27.4884 257.495 27.4884 257.916V271.577C27.4884 271.999 27.8576 272.368 28.2795 272.368H82.288C82.71 272.368 83.079 271.999 83.079 271.577V257.916C83.079 257.495 82.71 257.125 82.288 257.125H28.2795Z" fill="#2E3740"/>
<path opacity="0.31" d="M78.8072 166.513H60.1367V189.826H78.8072V166.513Z" fill="#4382FF"/>
<path opacity="0.31" d="M66.2018 204.962H49.6406V214.772H66.2018V204.962Z" fill="#4382FF"/>
<path opacity="0.31" d="M78.8063 216.355H31.2852V226.482H78.8063V216.355Z" fill="#4382FF"/>
<path d="M72.0034 247.209H38.0898V247.632H72.0034V247.209Z" fill="#2E3740"/>
<path d="M318.889 228.645C318.625 228.381 318.414 227.958 318.414 227.536L318.467 205.543L318.889 228.645Z" fill="white"/>
<path d="M383.656 123.054V123.317C383.604 123.317 383.551 123.317 383.498 123.317L380.545 123.106L359.289 121.471L382.18 121.524C382.971 121.524 383.656 122.21 383.656 123.054Z" fill="white"/>
<path d="M392.679 47.6316H383.871V43.9396C383.871 43.5177 384.24 43.2012 384.61 43.2012H392.679C393.892 43.2012 394.894 44.2033 394.894 45.4164C394.894 46.6295 393.892 47.6316 392.679 47.6316Z" fill="#F2F2F2"/>
<path d="M366.201 65.5635C376.774 65.5635 385.346 56.992 385.346 46.4181C385.346 35.8443 376.774 27.2725 366.201 27.2725C355.627 27.2725 347.055 35.8443 347.055 46.4181C347.055 56.992 355.627 65.5635 366.201 65.5635Z" fill="white"/>
<path d="M380.657 53.9361C384.851 45.5471 381.451 35.3461 373.062 31.1516C364.673 26.957 354.472 30.3574 350.277 38.7464C346.083 47.1354 349.483 57.3366 357.872 61.5311C366.261 65.7256 376.462 62.3251 380.657 53.9361Z" fill="#2E3740"/>
<path opacity="0.05" d="M370.736 59.762C370.155 59.762 369.575 59.393 369.312 58.8125C368.942 58.0215 369.312 57.072 370.103 56.703C371.474 56.07 372.74 55.226 373.795 54.224C374.691 53.38 377.487 50.6905 377.487 46.5764C377.487 43.2009 375.588 40.722 374.744 39.8254C374.164 39.1925 374.217 38.1903 374.85 37.6101C375.482 37.03 376.485 37.0827 377.065 37.7156C378.12 38.8759 380.598 42.0933 380.598 46.5764C380.598 50.2155 379.016 53.591 375.957 56.545C374.691 57.758 373.109 58.8125 371.421 59.604C371.21 59.7095 370.947 59.762 370.736 59.762Z" fill="white"/>
<path opacity="0.05" d="M364.461 61.186C363.722 61.186 362.984 61.1335 362.245 61.028C361.402 60.9225 360.769 60.0785 360.927 59.2345C361.085 58.3905 361.876 57.758 362.72 57.916C365.094 58.285 367.731 57.863 370.104 56.8085C370.895 56.439 371.845 56.8085 372.214 57.5995C372.583 58.3905 372.214 59.34 371.423 59.709C369.207 60.6585 366.781 61.186 364.461 61.186Z" fill="white"/>
<path opacity="0.3" d="M364.461 61.186C363.722 61.186 362.984 61.1335 362.245 61.028C361.402 60.9225 360.769 60.0785 360.927 59.2345C361.085 58.3905 361.876 57.758 362.72 57.916C365.094 58.285 367.731 57.863 370.104 56.8085C370.895 56.439 371.845 56.8085 372.214 57.5995C372.583 58.3905 372.214 59.34 371.423 59.709C369.207 60.6585 366.781 61.186 364.461 61.186Z" fill="white"/>
<path opacity="0.05" d="M362.455 61.028C362.349 61.028 362.297 61.028 362.192 61.028C360.609 60.764 359.132 60.2895 357.761 59.551C353.489 57.283 351.643 53.38 351.01 51.798C349.638 48.264 349.692 44.4666 351.168 40.5636C351.907 38.6121 353.014 36.7662 354.491 35.1839C355.071 34.551 356.073 34.4982 356.706 35.0784C357.339 35.6586 357.392 36.6607 356.812 37.2936C355.652 38.6121 354.754 40.0362 354.121 41.6712C352.908 44.8358 352.856 47.8421 353.911 50.6375C354.386 51.8505 355.862 54.9625 359.185 56.703C360.24 57.283 361.4 57.6525 362.614 57.8105C363.457 57.916 364.09 58.76 363.932 59.6035C363.879 60.4475 363.246 61.028 362.455 61.028Z" fill="white"/>
<path opacity="0.12" d="M364.619 52.3785C362.668 52.3785 360.716 51.7455 359.24 50.6375C355.811 48.0534 355.389 43.2538 356.761 39.931C358.712 35.1314 363.723 34.1293 364.303 34.0238C364.883 33.9184 365.411 34.2876 365.516 34.8677C365.621 35.4479 365.252 35.9753 364.672 36.0808C364.514 36.1336 360.294 36.9247 358.712 40.7222C357.657 43.2538 357.974 46.9985 360.505 48.95C361.929 50.005 363.828 50.4795 365.727 50.163C367.362 49.8994 368.733 49.1082 369.524 47.9479C370.527 46.4711 370.79 44.2559 370.105 42.2517C369.683 41.0386 368.997 40.142 368.259 39.931C367.626 39.72 366.624 39.8783 365.727 40.4057C364.725 40.9859 363.986 41.8825 363.775 42.8319C363.617 43.7285 363.828 45.1525 364.672 45.5217C365.463 45.8909 366.465 45.2053 366.518 45.2053C366.993 44.8888 367.678 45.0471 367.995 45.5217C368.311 45.9964 368.153 46.6821 367.678 46.9985C367.362 47.2095 365.569 48.2644 363.828 47.4732C361.771 46.5766 361.455 43.9395 361.719 42.4099C362.035 40.8804 363.09 39.5091 364.672 38.6125C366.096 37.7686 367.678 37.5576 368.892 37.9268C370.263 38.4015 371.423 39.72 372.056 41.6188C372.742 43.6757 372.9 46.7348 371.212 49.161C370.052 50.796 368.206 51.9565 365.991 52.273C365.569 52.3785 365.094 52.3785 364.619 52.3785Z" fill="white"/>
<path opacity="0.11" d="M292.836 127.748V151.64L104.176 127.748C104.176 124.741 106.602 122.262 109.661 122.262H287.403C290.41 122.262 292.836 124.689 292.836 127.748Z" fill="#020202"/>
<path fill-rule="evenodd" clip-rule="evenodd" d="M27.3813 60.3426L27.5512 57.7486L25.3053 57.1806L24.9023 60.0261L27.3813 60.3426Z" fill="#B3CAF8"/>
<path d="M186.454 58.9185H79.2289C78.0684 58.9185 77.1719 57.969 77.1719 56.8615V30.701C77.1719 29.5406 78.1214 28.644 79.2289 28.644H186.454C187.615 28.644 188.511 29.5934 188.511 30.701V56.8615C188.511 57.969 187.562 58.9185 186.454 58.9185ZM79.2289 29.2769C78.4379 29.2769 77.8049 29.9098 77.8049 30.701V56.8615C77.8049 57.6525 78.4379 58.2855 79.2289 58.2855H186.454C187.246 58.2855 187.879 57.6525 187.879 56.8615V30.701C187.879 29.9098 187.246 29.2769 186.454 29.2769H79.2289Z" fill="#2E3740"/>
<path opacity="0.11" d="M136.665 40.5112H83.5V44.045H136.665V40.5112Z" fill="#4382FF"/>
<path opacity="0.11" d="M180.759 46.4185H83.2383V49.9522H180.759V46.4185Z" fill="#4382FF"/>
<path opacity="0.11" d="M288.453 69.937V55.749H254.328V69.937H288.453Z" fill="#020202"/>
<path d="M197.371 270.68H194.734V270.153H197.371V270.68ZM192.097 270.68H189.46V270.153H192.097V270.68ZM186.823 270.68H184.186V270.153H186.823V270.68ZM181.549 270.68H178.912V270.153H181.549V270.68ZM176.274 270.68H173.637V270.153H176.274V270.68ZM171 270.68H168.363V270.153H171V270.68ZM165.726 270.68H163.089V270.153H165.726V270.68ZM160.452 270.68H157.815V270.153H160.452V270.68ZM155.177 270.68H152.54V270.153H155.177V270.68ZM149.903 270.68H147.266V270.153H149.903V270.68ZM144.629 270.68H141.992V270.153H144.629V270.68ZM139.355 270.68H136.717V270.153H139.355V270.68ZM134.08 270.68H131.443V270.153H134.08V270.68ZM128.806 270.68H126.169V270.153H128.806V270.68ZM123.532 270.68H120.895V270.153H123.532V270.68ZM199.428 269.625H198.901V266.988H199.428V269.625ZM199.428 264.351H198.901V261.714H199.428V264.351ZM199.428 259.077H198.901V256.439H199.428V259.077ZM199.428 253.802H198.901V251.165H199.428V253.802ZM199.428 248.528H198.901V245.891H199.428V248.528ZM199.428 243.254H198.901V240.617H199.428V243.254ZM199.428 237.98H198.901V235.342H199.428V237.98ZM199.428 232.705H198.901V230.068H199.428V232.705ZM199.428 227.431H198.901V224.794H199.428V227.431ZM199.428 222.157H198.901V219.52H199.428V222.157ZM199.428 216.882H198.901V214.245H199.428V216.882Z" fill="#2E3740"/>
<path d="M121.895 275.268C124.575 275.268 126.747 273.096 126.747 270.416C126.747 267.736 124.575 265.564 121.895 265.564C119.215 265.564 117.043 267.736 117.043 270.416C117.043 273.096 119.215 275.268 121.895 275.268Z" fill="#B3CAF8"/>
<path opacity="0.11" fill-rule="evenodd" clip-rule="evenodd" d="M167.784 229.963H229.176C231.813 229.963 233.923 227.853 233.87 225.269V189.984C233.87 187.4 231.761 185.29 229.176 185.29H167.784C165.199 185.29 163.09 187.4 163.09 189.984V225.269C163.09 227.853 165.199 229.963 167.784 229.963ZM199.241 214.84C195.731 214.981 193.884 212.006 194.415 209.137C194.857 206.742 196.082 205.188 199.241 205.188C202.399 205.188 204.067 208.523 204.067 209.839C204.067 211.155 203.628 214.665 199.241 214.84Z" fill="#020202"/>
</svg>
