<svg width="24" height="24" viewBox="0 0 24 24" fill="none" xmlns="http://www.w3.org/2000/svg">
<path d="M18 11.66V21C18 21.55 17.55 22 17 22H3C2.45 22 2 21.55 2 21V7C2 6.45 2.45 6 3 6H12.34" fill="white" fill-opacity="0.3"/>
<path fill-rule="evenodd" clip-rule="evenodd" d="M22.4256 2.42392C22.6599 2.18961 22.6599 1.80971 22.4256 1.57539C22.1913 1.34108 21.8114 1.34108 21.5771 1.57539L10.6014 12.5511V7.99966C10.6014 7.66829 10.3327 7.39966 10.0014 7.39966C9.67 7.39966 9.40137 7.66829 9.40137 7.99966V13.9997C9.40137 14.331 9.67 14.5997 10.0014 14.5997H16.0014C16.3327 14.5997 16.6014 14.331 16.6014 13.9997C16.6014 13.6683 16.3327 13.3997 16.0014 13.3997H11.4499L22.4256 2.42392Z" fill="white" fill-opacity="0.6"/>
</svg>
